<mxfile host="app.diagrams.net" modified="2022-05-23T18:27:47.244Z" agent="5.0 (Windows NT 10.0; Win64; x64) AppleWebKit/537.36 (KHTML, like Gecko) Chrome/101.0.4951.54 Safari/537.36" etag="M_ax1PCDTfNFwnLrAo6-" version="18.0.6" type="github">
  <diagram id="_L4seDgNO_HDqvERbjii" name="Page-1">
    <mxGraphModel dx="1490" dy="523" grid="1" gridSize="10" guides="1" tooltips="1" connect="1" arrows="1" fold="1" page="1" pageScale="1" pageWidth="1169" pageHeight="1654" math="0" shadow="0">
      <root>
        <mxCell id="0" />
        <mxCell id="1" parent="0" />
        <mxCell id="G9khIPw7my-z3GdnAK4o-5" value="carts" style="swimlane;fontStyle=0;childLayout=stackLayout;horizontal=1;startSize=26;fillColor=none;horizontalStack=0;resizeParent=1;resizeParentMax=0;resizeLast=0;collapsible=1;marginBottom=0;" parent="1" vertex="1">
          <mxGeometry x="540" y="394" width="140" height="130" as="geometry" />
        </mxCell>
        <mxCell id="G9khIPw7my-z3GdnAK4o-6" value="    cart_id : int" style="text;strokeColor=none;fillColor=none;align=left;verticalAlign=top;spacingLeft=4;spacingRight=4;overflow=hidden;rotatable=0;points=[[0,0.5],[1,0.5]];portConstraint=eastwest;fontColor=#FF0000;" parent="G9khIPw7my-z3GdnAK4o-5" vertex="1">
          <mxGeometry y="26" width="140" height="26" as="geometry" />
        </mxCell>
        <mxCell id="G9khIPw7my-z3GdnAK4o-7" value="    user_id : int" style="text;strokeColor=none;fillColor=none;align=left;verticalAlign=top;spacingLeft=4;spacingRight=4;overflow=hidden;rotatable=0;points=[[0,0.5],[1,0.5]];portConstraint=eastwest;fontColor=#0000FF;" parent="G9khIPw7my-z3GdnAK4o-5" vertex="1">
          <mxGeometry y="52" width="140" height="78" as="geometry" />
        </mxCell>
        <mxCell id="G9khIPw7my-z3GdnAK4o-62" style="edgeStyle=orthogonalEdgeStyle;rounded=0;orthogonalLoop=1;jettySize=auto;html=1;entryX=1;entryY=0.5;entryDx=0;entryDy=0;fontColor=#0000FF;exitX=0;exitY=0.75;exitDx=0;exitDy=0;endArrow=none;endFill=0;" parent="1" source="G9khIPw7my-z3GdnAK4o-63" target="G9khIPw7my-z3GdnAK4o-10" edge="1">
          <mxGeometry relative="1" as="geometry" />
        </mxCell>
        <mxCell id="G9khIPw7my-z3GdnAK4o-68" style="edgeStyle=orthogonalEdgeStyle;rounded=0;orthogonalLoop=1;jettySize=auto;html=1;entryX=0;entryY=0.5;entryDx=0;entryDy=0;fontColor=#FF0000;exitX=0;exitY=1;exitDx=0;exitDy=0;endArrow=none;endFill=0;" parent="1" source="G9khIPw7my-z3GdnAK4o-65" target="G9khIPw7my-z3GdnAK4o-10" edge="1">
          <mxGeometry relative="1" as="geometry">
            <mxPoint x="700" y="310" as="sourcePoint" />
            <mxPoint x="1048" y="440" as="targetPoint" />
            <Array as="points">
              <mxPoint x="1070" y="320" />
              <mxPoint x="1030" y="320" />
              <mxPoint x="1030" y="440" />
              <mxPoint x="1047" y="440" />
            </Array>
          </mxGeometry>
        </mxCell>
        <mxCell id="G9khIPw7my-z3GdnAK4o-69" value="&lt;font color=&quot;#000000&quot;&gt;1&lt;/font&gt;" style="text;html=1;strokeColor=none;fillColor=none;align=center;verticalAlign=middle;whiteSpace=wrap;rounded=0;fontColor=#FF0000;" parent="1" vertex="1">
          <mxGeometry x="1208" y="412" width="60" height="30" as="geometry" />
        </mxCell>
        <mxCell id="G9khIPw7my-z3GdnAK4o-70" value="&lt;font color=&quot;#000000&quot;&gt;*&lt;/font&gt;" style="text;html=1;strokeColor=none;fillColor=none;align=center;verticalAlign=middle;whiteSpace=wrap;rounded=0;fontColor=#FF0000;" parent="1" vertex="1">
          <mxGeometry x="1269.18" y="316" width="60" height="30" as="geometry" />
        </mxCell>
        <mxCell id="G9khIPw7my-z3GdnAK4o-74" value="&lt;font color=&quot;#000000&quot;&gt;1&lt;/font&gt;" style="text;html=1;strokeColor=none;fillColor=none;align=center;verticalAlign=middle;whiteSpace=wrap;rounded=0;fontColor=#FF0000;" parent="1" vertex="1">
          <mxGeometry x="1027" y="447.39" width="18" height="19" as="geometry" />
        </mxCell>
        <mxCell id="G9khIPw7my-z3GdnAK4o-75" value="&lt;font color=&quot;#000000&quot;&gt;1&lt;/font&gt;" style="text;html=1;strokeColor=none;fillColor=none;align=center;verticalAlign=middle;whiteSpace=wrap;rounded=0;fontColor=#FF0000;" parent="1" vertex="1">
          <mxGeometry x="1006" y="417" width="60" height="30" as="geometry" />
        </mxCell>
        <mxCell id="G9khIPw7my-z3GdnAK4o-79" style="edgeStyle=orthogonalEdgeStyle;rounded=0;orthogonalLoop=1;jettySize=auto;html=1;exitX=1;exitY=0.75;exitDx=0;exitDy=0;entryX=0;entryY=0.5;entryDx=0;entryDy=0;fontColor=#FF0000;endArrow=none;endFill=0;" parent="1" source="G9khIPw7my-z3GdnAK4o-77" target="G9khIPw7my-z3GdnAK4o-26" edge="1">
          <mxGeometry relative="1" as="geometry" />
        </mxCell>
        <mxCell id="G9khIPw7my-z3GdnAK4o-80" value="&lt;font color=&quot;#000000&quot;&gt;*&lt;/font&gt;" style="text;html=1;strokeColor=none;fillColor=none;align=center;verticalAlign=middle;whiteSpace=wrap;rounded=0;fontColor=#FF0000;" parent="1" vertex="1">
          <mxGeometry x="1149" y="937" width="60" height="30" as="geometry" />
        </mxCell>
        <mxCell id="G9khIPw7my-z3GdnAK4o-81" value="&lt;font color=&quot;#000000&quot;&gt;1&lt;/font&gt;" style="text;html=1;strokeColor=none;fillColor=none;align=center;verticalAlign=middle;whiteSpace=wrap;rounded=0;fontColor=#FF0000;" parent="1" vertex="1">
          <mxGeometry x="1233.65" y="680" width="60" height="30" as="geometry" />
        </mxCell>
        <mxCell id="G9khIPw7my-z3GdnAK4o-84" style="edgeStyle=orthogonalEdgeStyle;rounded=0;orthogonalLoop=1;jettySize=auto;html=1;entryX=0;entryY=0.5;entryDx=0;entryDy=0;fontColor=#FF0000;endArrow=none;endFill=0;" parent="1" target="G9khIPw7my-z3GdnAK4o-46" edge="1">
          <mxGeometry relative="1" as="geometry">
            <Array as="points">
              <mxPoint x="1168" y="980" />
              <mxPoint x="1238" y="980" />
              <mxPoint x="1238" y="811" />
            </Array>
            <mxPoint x="1168" y="970" as="sourcePoint" />
          </mxGeometry>
        </mxCell>
        <mxCell id="G9khIPw7my-z3GdnAK4o-85" value="&lt;font color=&quot;#000000&quot;&gt;*&lt;/font&gt;" style="text;html=1;strokeColor=none;fillColor=none;align=center;verticalAlign=middle;whiteSpace=wrap;rounded=0;fontColor=#FF0000;" parent="1" vertex="1">
          <mxGeometry x="1149" y="1002" width="60" height="30" as="geometry" />
        </mxCell>
        <mxCell id="G9khIPw7my-z3GdnAK4o-86" value="&lt;font color=&quot;#000000&quot;&gt;1&lt;/font&gt;" style="text;html=1;strokeColor=none;fillColor=none;align=center;verticalAlign=middle;whiteSpace=wrap;rounded=0;fontColor=#FF0000;" parent="1" vertex="1">
          <mxGeometry x="1233.65" y="790" width="60" height="30" as="geometry" />
        </mxCell>
        <mxCell id="G9khIPw7my-z3GdnAK4o-95" style="edgeStyle=orthogonalEdgeStyle;rounded=0;orthogonalLoop=1;jettySize=auto;html=1;exitX=1;exitY=0.812;exitDx=0;exitDy=0;entryX=0;entryY=0.5;entryDx=0;entryDy=0;fontColor=#FF0000;exitPerimeter=0;endArrow=none;endFill=0;" parent="1" source="G9khIPw7my-z3GdnAK4o-3" target="G9khIPw7my-z3GdnAK4o-91" edge="1">
          <mxGeometry relative="1" as="geometry">
            <Array as="points">
              <mxPoint x="1248" y="1022" />
              <mxPoint x="1248" y="919" />
            </Array>
          </mxGeometry>
        </mxCell>
        <mxCell id="G9khIPw7my-z3GdnAK4o-96" value="&lt;font color=&quot;#000000&quot;&gt;*&lt;/font&gt;" style="text;html=1;strokeColor=none;fillColor=none;align=center;verticalAlign=middle;whiteSpace=wrap;rounded=0;fontColor=#FF0000;" parent="1" vertex="1">
          <mxGeometry x="1147" y="959" width="60" height="30" as="geometry" />
        </mxCell>
        <mxCell id="G9khIPw7my-z3GdnAK4o-98" value="&lt;font color=&quot;#000000&quot;&gt;1&lt;/font&gt;" style="text;html=1;strokeColor=none;fillColor=none;align=center;verticalAlign=middle;whiteSpace=wrap;rounded=0;fontColor=#FF0000;" parent="1" vertex="1">
          <mxGeometry x="1238" y="890" width="60" height="30" as="geometry" />
        </mxCell>
        <mxCell id="G9khIPw7my-z3GdnAK4o-109" value="contry/postcode/city" style="swimlane;fontStyle=0;childLayout=stackLayout;horizontal=1;startSize=26;fillColor=none;horizontalStack=0;resizeParent=1;resizeParentMax=0;resizeLast=0;collapsible=1;marginBottom=0;" parent="1" vertex="1">
          <mxGeometry x="270" y="635" width="140" height="104" as="geometry" />
        </mxCell>
        <mxCell id="G9khIPw7my-z3GdnAK4o-110" value="+ field: type" style="text;strokeColor=none;fillColor=none;align=left;verticalAlign=top;spacingLeft=4;spacingRight=4;overflow=hidden;rotatable=0;points=[[0,0.5],[1,0.5]];portConstraint=eastwest;" parent="G9khIPw7my-z3GdnAK4o-109" vertex="1">
          <mxGeometry y="26" width="140" height="26" as="geometry" />
        </mxCell>
        <mxCell id="G9khIPw7my-z3GdnAK4o-111" value="+ field: type" style="text;strokeColor=none;fillColor=none;align=left;verticalAlign=top;spacingLeft=4;spacingRight=4;overflow=hidden;rotatable=0;points=[[0,0.5],[1,0.5]];portConstraint=eastwest;" parent="G9khIPw7my-z3GdnAK4o-109" vertex="1">
          <mxGeometry y="52" width="140" height="26" as="geometry" />
        </mxCell>
        <mxCell id="G9khIPw7my-z3GdnAK4o-112" value="+ field: type" style="text;strokeColor=none;fillColor=none;align=left;verticalAlign=top;spacingLeft=4;spacingRight=4;overflow=hidden;rotatable=0;points=[[0,0.5],[1,0.5]];portConstraint=eastwest;" parent="G9khIPw7my-z3GdnAK4o-109" vertex="1">
          <mxGeometry y="78" width="140" height="26" as="geometry" />
        </mxCell>
        <mxCell id="AN9EAjbtdKbISoLZVyTg-6" value="" style="group" vertex="1" connectable="0" parent="1">
          <mxGeometry x="1278" y="670.89" width="140" height="78" as="geometry" />
        </mxCell>
        <mxCell id="G9khIPw7my-z3GdnAK4o-25" value="books_types" style="swimlane;fontStyle=0;childLayout=stackLayout;horizontal=1;startSize=26;fillColor=none;horizontalStack=0;resizeParent=1;resizeParentMax=0;resizeLast=0;collapsible=1;marginBottom=0;" parent="AN9EAjbtdKbISoLZVyTg-6" vertex="1">
          <mxGeometry width="140" height="78" as="geometry" />
        </mxCell>
        <mxCell id="G9khIPw7my-z3GdnAK4o-26" value="     book_type_id : int" style="text;strokeColor=none;fillColor=none;align=left;verticalAlign=top;spacingLeft=4;spacingRight=4;overflow=hidden;rotatable=0;points=[[0,0.5],[1,0.5]];portConstraint=eastwest;fontColor=#FF0000;" parent="G9khIPw7my-z3GdnAK4o-25" vertex="1">
          <mxGeometry y="26" width="140" height="26" as="geometry" />
        </mxCell>
        <mxCell id="G9khIPw7my-z3GdnAK4o-27" value="book_type : varchar" style="text;strokeColor=none;fillColor=none;align=left;verticalAlign=top;spacingLeft=4;spacingRight=4;overflow=hidden;rotatable=0;points=[[0,0.5],[1,0.5]];portConstraint=eastwest;" parent="G9khIPw7my-z3GdnAK4o-25" vertex="1">
          <mxGeometry y="52" width="140" height="26" as="geometry" />
        </mxCell>
        <mxCell id="G9khIPw7my-z3GdnAK4o-78" value="" style="points=[[0,0.5,0],[0.24,0,0],[0.5,0.28,0],[0.995,0.475,0],[0.5,0.72,0],[0.24,1,0]];verticalLabelPosition=bottom;sketch=0;html=1;verticalAlign=top;aspect=fixed;align=center;pointerEvents=1;shape=mxgraph.cisco19.key;fillColor=#e3c800;strokeColor=#B09500;fontColor=#000000;direction=north;" parent="AN9EAjbtdKbISoLZVyTg-6" vertex="1">
          <mxGeometry x="4" y="29.110000000000014" width="11.65" height="25.89" as="geometry" />
        </mxCell>
        <mxCell id="AN9EAjbtdKbISoLZVyTg-7" value="" style="group" vertex="1" connectable="0" parent="1">
          <mxGeometry x="1278" y="771.94" width="140" height="90" as="geometry" />
        </mxCell>
        <mxCell id="G9khIPw7my-z3GdnAK4o-45" value="serial_books" style="swimlane;fontStyle=0;childLayout=stackLayout;horizontal=1;startSize=26;fillColor=none;horizontalStack=0;resizeParent=1;resizeParentMax=0;resizeLast=0;collapsible=1;marginBottom=0;" parent="AN9EAjbtdKbISoLZVyTg-7" vertex="1">
          <mxGeometry width="140" height="90" as="geometry" />
        </mxCell>
        <mxCell id="G9khIPw7my-z3GdnAK4o-46" value="      serial_book_id : int" style="text;strokeColor=none;fillColor=none;align=left;verticalAlign=top;spacingLeft=4;spacingRight=4;overflow=hidden;rotatable=0;points=[[0,0.5],[1,0.5]];portConstraint=eastwest;fontColor=#FF0000;" parent="G9khIPw7my-z3GdnAK4o-45" vertex="1">
          <mxGeometry y="26" width="140" height="26" as="geometry" />
        </mxCell>
        <mxCell id="G9khIPw7my-z3GdnAK4o-47" value="serial_name : varchar&#xa;volume_number : int" style="text;strokeColor=none;fillColor=none;align=left;verticalAlign=top;spacingLeft=4;spacingRight=4;overflow=hidden;rotatable=0;points=[[0,0.5],[1,0.5]];portConstraint=eastwest;" parent="G9khIPw7my-z3GdnAK4o-45" vertex="1">
          <mxGeometry y="52" width="140" height="38" as="geometry" />
        </mxCell>
        <mxCell id="G9khIPw7my-z3GdnAK4o-100" value="" style="points=[[0,0.5,0],[0.24,0,0],[0.5,0.28,0],[0.995,0.475,0],[0.5,0.72,0],[0.24,1,0]];verticalLabelPosition=bottom;sketch=0;html=1;verticalAlign=top;aspect=fixed;align=center;pointerEvents=1;shape=mxgraph.cisco19.key;fillColor=#e3c800;strokeColor=#B09500;fontColor=#000000;direction=north;" parent="AN9EAjbtdKbISoLZVyTg-7" vertex="1">
          <mxGeometry x="8" y="32.059999999999945" width="11.65" height="25.89" as="geometry" />
        </mxCell>
        <mxCell id="AN9EAjbtdKbISoLZVyTg-8" value="" style="group" vertex="1" connectable="0" parent="1">
          <mxGeometry x="1278" y="880" width="140" height="78" as="geometry" />
        </mxCell>
        <mxCell id="G9khIPw7my-z3GdnAK4o-89" value="books_univers" style="swimlane;fontStyle=0;childLayout=stackLayout;horizontal=1;startSize=26;fillColor=none;horizontalStack=0;resizeParent=1;resizeParentMax=0;resizeLast=0;collapsible=1;marginBottom=0;" parent="AN9EAjbtdKbISoLZVyTg-8" vertex="1">
          <mxGeometry width="140" height="78" as="geometry" />
        </mxCell>
        <mxCell id="G9khIPw7my-z3GdnAK4o-91" value="      book_univers_id : int" style="text;strokeColor=none;fillColor=none;align=left;verticalAlign=top;spacingLeft=4;spacingRight=4;overflow=hidden;rotatable=0;points=[[0,0.5],[1,0.5]];portConstraint=eastwest;fontColor=#FF0000;" parent="G9khIPw7my-z3GdnAK4o-89" vertex="1">
          <mxGeometry y="26" width="140" height="26" as="geometry" />
        </mxCell>
        <mxCell id="G9khIPw7my-z3GdnAK4o-92" value="book_univers : json" style="text;strokeColor=none;fillColor=none;align=left;verticalAlign=top;spacingLeft=4;spacingRight=4;overflow=hidden;rotatable=0;points=[[0,0.5],[1,0.5]];portConstraint=eastwest;" parent="G9khIPw7my-z3GdnAK4o-89" vertex="1">
          <mxGeometry y="52" width="140" height="26" as="geometry" />
        </mxCell>
        <mxCell id="G9khIPw7my-z3GdnAK4o-99" value="" style="points=[[0,0.5,0],[0.24,0,0],[0.5,0.28,0],[0.995,0.475,0],[0.5,0.72,0],[0.24,1,0]];verticalLabelPosition=bottom;sketch=0;html=1;verticalAlign=top;aspect=fixed;align=center;pointerEvents=1;shape=mxgraph.cisco19.key;fillColor=#e3c800;strokeColor=#B09500;fontColor=#000000;direction=north;" parent="AN9EAjbtdKbISoLZVyTg-8" vertex="1">
          <mxGeometry x="7" y="31" width="11.65" height="25.89" as="geometry" />
        </mxCell>
        <mxCell id="AN9EAjbtdKbISoLZVyTg-9" value="" style="group" vertex="1" connectable="0" parent="1">
          <mxGeometry x="1308" y="270" width="140" height="160" as="geometry" />
        </mxCell>
        <mxCell id="G9khIPw7my-z3GdnAK4o-17" value="address" style="swimlane;fontStyle=0;childLayout=stackLayout;horizontal=1;startSize=26;fillColor=none;horizontalStack=0;resizeParent=1;resizeParentMax=0;resizeLast=0;collapsible=1;marginBottom=0;" parent="AN9EAjbtdKbISoLZVyTg-9" vertex="1">
          <mxGeometry width="140" height="160" as="geometry" />
        </mxCell>
        <mxCell id="G9khIPw7my-z3GdnAK4o-18" value="     address_id : int" style="text;strokeColor=none;fillColor=none;align=left;verticalAlign=top;spacingLeft=4;spacingRight=4;overflow=hidden;rotatable=0;points=[[0,0.5],[1,0.5]];portConstraint=eastwest;fontColor=#FF0000;" parent="G9khIPw7my-z3GdnAK4o-17" vertex="1">
          <mxGeometry y="26" width="140" height="26" as="geometry" />
        </mxCell>
        <mxCell id="G9khIPw7my-z3GdnAK4o-63" value="&lt;font style=&quot;font-family: Helvetica; font-size: 12px; font-style: normal; font-variant-ligatures: normal; font-variant-caps: normal; font-weight: 400; letter-spacing: normal; orphans: 2; text-align: left; text-indent: 0px; text-transform: none; widows: 2; word-spacing: 0px; -webkit-text-stroke-width: 0px; background-color: rgb(248, 249, 250); text-decoration-thickness: initial; text-decoration-style: initial; text-decoration-color: initial;&quot; color=&quot;#0000ff&quot;&gt;&lt;span style=&quot;font-family: Helvetica; font-size: 12px; font-style: normal; font-variant-ligatures: normal; font-variant-caps: normal; font-weight: 400; letter-spacing: normal; orphans: 2; text-align: left; text-indent: 0px; text-transform: none; widows: 2; word-spacing: 0px; -webkit-text-stroke-width: 0px; background-color: rgb(248, 249, 250); text-decoration-thickness: initial; text-decoration-style: initial; text-decoration-color: initial; float: none; display: inline !important;&quot;&gt;&amp;nbsp; &amp;nbsp; &amp;nbsp; user_id : int&lt;/span&gt;&lt;br style=&quot;padding: 0px; margin: 0px; font-family: Helvetica; font-size: 12px; font-style: normal; font-variant-ligatures: normal; font-variant-caps: normal; font-weight: 400; letter-spacing: normal; orphans: 2; text-align: left; text-indent: 0px; text-transform: none; widows: 2; word-spacing: 0px; -webkit-text-stroke-width: 0px; background-color: rgb(248, 249, 250); text-decoration-thickness: initial; text-decoration-style: initial; text-decoration-color: initial;&quot;&gt;&lt;/font&gt;" style="text;whiteSpace=wrap;html=1;fontColor=#0000FF;" parent="G9khIPw7my-z3GdnAK4o-17" vertex="1">
          <mxGeometry y="52" width="140" height="20" as="geometry" />
        </mxCell>
        <mxCell id="G9khIPw7my-z3GdnAK4o-19" value="country : varchar&#xa;city : varchar&#xa;postal_code : varchar&#xa;street : varchar&#xa;street_bis : varchar" style="text;strokeColor=none;fillColor=none;align=left;verticalAlign=top;spacingLeft=4;spacingRight=4;overflow=hidden;rotatable=0;points=[[0,0.5],[1,0.5]];portConstraint=eastwest;" parent="G9khIPw7my-z3GdnAK4o-17" vertex="1">
          <mxGeometry y="72" width="140" height="88" as="geometry" />
        </mxCell>
        <mxCell id="G9khIPw7my-z3GdnAK4o-55" value="" style="points=[[0,0.5,0],[0.24,0,0],[0.5,0.28,0],[0.995,0.475,0],[0.5,0.72,0],[0.24,1,0]];verticalLabelPosition=bottom;sketch=0;html=1;verticalAlign=top;aspect=fixed;align=center;pointerEvents=1;shape=mxgraph.cisco19.key;fillColor=#e3c800;strokeColor=#B09500;fontColor=#000000;direction=north;" parent="AN9EAjbtdKbISoLZVyTg-9" vertex="1">
          <mxGeometry x="6" y="27" width="11.65" height="25.89" as="geometry" />
        </mxCell>
        <mxCell id="G9khIPw7my-z3GdnAK4o-56" value="" style="points=[[0,0.5,0],[0.24,0,0],[0.5,0.28,0],[0.995,0.475,0],[0.5,0.72,0],[0.24,1,0]];verticalLabelPosition=bottom;sketch=0;html=1;verticalAlign=top;aspect=fixed;align=center;pointerEvents=1;shape=mxgraph.cisco19.key;fillColor=#bac8d3;strokeColor=#23445d;direction=north;" parent="AN9EAjbtdKbISoLZVyTg-9" vertex="1">
          <mxGeometry x="5" y="55.889999999999986" width="11.65" height="25.89" as="geometry" />
        </mxCell>
        <mxCell id="AN9EAjbtdKbISoLZVyTg-10" value="" style="group" vertex="1" connectable="0" parent="1">
          <mxGeometry x="1048" y="402" width="180" height="220" as="geometry" />
        </mxCell>
        <mxCell id="G9khIPw7my-z3GdnAK4o-9" value="users" style="swimlane;fontStyle=0;childLayout=stackLayout;horizontal=1;startSize=26;fillColor=none;horizontalStack=0;resizeParent=1;resizeParentMax=0;resizeLast=0;collapsible=1;marginBottom=0;" parent="AN9EAjbtdKbISoLZVyTg-10" vertex="1">
          <mxGeometry width="180" height="220" as="geometry" />
        </mxCell>
        <mxCell id="G9khIPw7my-z3GdnAK4o-10" value="     user_id : int" style="text;strokeColor=none;fillColor=none;align=left;verticalAlign=top;spacingLeft=4;spacingRight=4;overflow=hidden;rotatable=0;points=[[0,0.5],[1,0.5]];portConstraint=eastwest;fontColor=#FF0000;" parent="G9khIPw7my-z3GdnAK4o-9" vertex="1">
          <mxGeometry y="26" width="180" height="26" as="geometry" />
        </mxCell>
        <mxCell id="G9khIPw7my-z3GdnAK4o-11" value="first_name : varchar&#xa;last_name : varchar&#xa;email : varchar&#xa;phone : varchar&#xa;avatar : file&#xa;role : json&#xa;subscription_news_letter : bool&#xa;subscription_at : datetime&#xa;last_activity_at : datetime&#xa;born_at : date&#xa;password : text&#xa;   " style="text;strokeColor=none;fillColor=none;align=left;verticalAlign=top;spacingLeft=4;spacingRight=4;overflow=hidden;rotatable=0;points=[[0,0.5],[1,0.5]];portConstraint=eastwest;fontColor=#000000;" parent="G9khIPw7my-z3GdnAK4o-9" vertex="1">
          <mxGeometry y="52" width="180" height="168" as="geometry" />
        </mxCell>
        <mxCell id="G9khIPw7my-z3GdnAK4o-53" value="" style="points=[[0,0.5,0],[0.24,0,0],[0.5,0.28,0],[0.995,0.475,0],[0.5,0.72,0],[0.24,1,0]];verticalLabelPosition=bottom;sketch=0;html=1;verticalAlign=top;aspect=fixed;align=center;pointerEvents=1;shape=mxgraph.cisco19.key;fillColor=#e3c800;strokeColor=#B09500;fontColor=#000000;direction=north;" parent="AN9EAjbtdKbISoLZVyTg-10" vertex="1">
          <mxGeometry x="7" y="28" width="11.65" height="25.89" as="geometry" />
        </mxCell>
        <mxCell id="AN9EAjbtdKbISoLZVyTg-11" value="" style="group" vertex="1" connectable="0" parent="1">
          <mxGeometry x="1070" y="220" width="160" height="150" as="geometry" />
        </mxCell>
        <mxCell id="G9khIPw7my-z3GdnAK4o-21" value="payment_methods" style="swimlane;fontStyle=0;childLayout=stackLayout;horizontal=1;startSize=26;fillColor=none;horizontalStack=0;resizeParent=1;resizeParentMax=0;resizeLast=0;collapsible=1;marginBottom=0;" parent="AN9EAjbtdKbISoLZVyTg-11" vertex="1">
          <mxGeometry width="160" height="150" as="geometry" />
        </mxCell>
        <mxCell id="G9khIPw7my-z3GdnAK4o-22" value="     payment_method_id : int" style="text;strokeColor=none;fillColor=none;align=left;verticalAlign=top;spacingLeft=4;spacingRight=4;overflow=hidden;rotatable=0;points=[[0,0.5],[1,0.5]];portConstraint=eastwest;fontColor=#FF0000;" parent="G9khIPw7my-z3GdnAK4o-21" vertex="1">
          <mxGeometry y="26" width="160" height="26" as="geometry" />
        </mxCell>
        <mxCell id="G9khIPw7my-z3GdnAK4o-23" value="type_card : varchar&#xa;&#xa;&#xa;&#xa;number : varchar&#xa;crypto_number : int&#xa;   " style="text;strokeColor=none;fillColor=none;align=left;verticalAlign=top;spacingLeft=4;spacingRight=4;overflow=hidden;rotatable=0;points=[[0,0.5],[1,0.5]];portConstraint=eastwest;" parent="G9khIPw7my-z3GdnAK4o-21" vertex="1">
          <mxGeometry y="52" width="160" height="98" as="geometry" />
        </mxCell>
        <mxCell id="G9khIPw7my-z3GdnAK4o-65" value="&lt;font style=&quot;font-family: Helvetica; font-size: 12px; font-style: normal; font-variant-ligatures: normal; font-variant-caps: normal; font-weight: 400; letter-spacing: normal; orphans: 2; text-align: left; text-indent: 0px; text-transform: none; widows: 2; word-spacing: 0px; -webkit-text-stroke-width: 0px; background-color: rgb(248, 249, 250); text-decoration-thickness: initial; text-decoration-style: initial; text-decoration-color: initial;&quot; color=&quot;#0000ff&quot;&gt;&lt;span style=&quot;font-family: Helvetica; font-size: 12px; font-style: normal; font-variant-ligatures: normal; font-variant-caps: normal; font-weight: 400; letter-spacing: normal; orphans: 2; text-align: left; text-indent: 0px; text-transform: none; widows: 2; word-spacing: 0px; -webkit-text-stroke-width: 0px; background-color: rgb(248, 249, 250); text-decoration-thickness: initial; text-decoration-style: initial; text-decoration-color: initial; float: none; display: inline !important;&quot;&gt;&amp;nbsp; &amp;nbsp; &amp;nbsp; user_id : int&lt;/span&gt;&lt;br style=&quot;padding: 0px; margin: 0px; font-family: Helvetica; font-size: 12px; font-style: normal; font-variant-ligatures: normal; font-variant-caps: normal; font-weight: 400; letter-spacing: normal; orphans: 2; text-align: left; text-indent: 0px; text-transform: none; widows: 2; word-spacing: 0px; -webkit-text-stroke-width: 0px; background-color: rgb(248, 249, 250); text-decoration-thickness: initial; text-decoration-style: initial; text-decoration-color: initial;&quot;&gt;&lt;/font&gt;" style="text;whiteSpace=wrap;html=1;fontColor=#0000FF;" parent="AN9EAjbtdKbISoLZVyTg-11" vertex="1">
          <mxGeometry y="81" width="140" height="20" as="geometry" />
        </mxCell>
        <mxCell id="G9khIPw7my-z3GdnAK4o-66" value="" style="points=[[0,0.5,0],[0.24,0,0],[0.5,0.28,0],[0.995,0.475,0],[0.5,0.72,0],[0.24,1,0]];verticalLabelPosition=bottom;sketch=0;html=1;verticalAlign=top;aspect=fixed;align=center;pointerEvents=1;shape=mxgraph.cisco19.key;fillColor=#e3c800;strokeColor=#B09500;fontColor=#000000;direction=north;" parent="AN9EAjbtdKbISoLZVyTg-11" vertex="1">
          <mxGeometry x="6.350000000000023" y="27.889999999999986" width="11.65" height="25.89" as="geometry" />
        </mxCell>
        <mxCell id="G9khIPw7my-z3GdnAK4o-67" value="" style="points=[[0,0.5,0],[0.24,0,0],[0.5,0.28,0],[0.995,0.475,0],[0.5,0.72,0],[0.24,1,0]];verticalLabelPosition=bottom;sketch=0;html=1;verticalAlign=top;aspect=fixed;align=center;pointerEvents=1;shape=mxgraph.cisco19.key;fillColor=#bac8d3;strokeColor=#23445d;direction=north;" parent="AN9EAjbtdKbISoLZVyTg-11" vertex="1">
          <mxGeometry x="5" y="81" width="11.65" height="25.89" as="geometry" />
        </mxCell>
        <mxCell id="AN9EAjbtdKbISoLZVyTg-14" value="" style="group" vertex="1" connectable="0" parent="1">
          <mxGeometry x="635" y="1111" width="140" height="170" as="geometry" />
        </mxCell>
        <mxCell id="G9khIPw7my-z3GdnAK4o-37" value="writers" style="swimlane;fontStyle=0;childLayout=stackLayout;horizontal=1;startSize=26;fillColor=none;horizontalStack=0;resizeParent=1;resizeParentMax=0;resizeLast=0;collapsible=1;marginBottom=0;" parent="AN9EAjbtdKbISoLZVyTg-14" vertex="1">
          <mxGeometry width="140" height="140" as="geometry" />
        </mxCell>
        <mxCell id="G9khIPw7my-z3GdnAK4o-38" value="      writer_id : int" style="text;strokeColor=none;fillColor=none;align=left;verticalAlign=top;spacingLeft=4;spacingRight=4;overflow=hidden;rotatable=0;points=[[0,0.5],[1,0.5]];portConstraint=eastwest;fontColor=#FF0000;" parent="G9khIPw7my-z3GdnAK4o-37" vertex="1">
          <mxGeometry y="26" width="140" height="26" as="geometry" />
        </mxCell>
        <mxCell id="G9khIPw7my-z3GdnAK4o-39" value="name : varchar&#xa;born_at : date&#xa;dead_at : date&#xa;biography : text&#xa;image : file" style="text;strokeColor=none;fillColor=none;align=left;verticalAlign=top;spacingLeft=4;spacingRight=4;overflow=hidden;rotatable=0;points=[[0,0.5],[1,0.5]];portConstraint=eastwest;" parent="G9khIPw7my-z3GdnAK4o-37" vertex="1">
          <mxGeometry y="52" width="140" height="88" as="geometry" />
        </mxCell>
        <mxCell id="AN9EAjbtdKbISoLZVyTg-13" value="" style="points=[[0,0.5,0],[0.24,0,0],[0.5,0.28,0],[0.995,0.475,0],[0.5,0.72,0],[0.24,1,0]];verticalLabelPosition=bottom;sketch=0;html=1;verticalAlign=top;aspect=fixed;align=center;pointerEvents=1;shape=mxgraph.cisco19.key;fillColor=#e3c800;strokeColor=#B09500;fontColor=#000000;direction=north;" vertex="1" parent="AN9EAjbtdKbISoLZVyTg-14">
          <mxGeometry x="8" y="29" width="11.65" height="25.89" as="geometry" />
        </mxCell>
        <mxCell id="AN9EAjbtdKbISoLZVyTg-17" value="" style="group" vertex="1" connectable="0" parent="1">
          <mxGeometry x="1028" y="720" width="143.82999999999993" height="360" as="geometry" />
        </mxCell>
        <mxCell id="G9khIPw7my-z3GdnAK4o-93" value="&lt;font style=&quot;font-family: Helvetica; font-size: 12px; font-style: normal; font-variant-ligatures: normal; font-variant-caps: normal; font-weight: 400; letter-spacing: normal; orphans: 2; text-align: left; text-indent: 0px; text-transform: none; widows: 2; word-spacing: 0px; -webkit-text-stroke-width: 0px; background-color: rgb(248, 249, 250); text-decoration-thickness: initial; text-decoration-style: initial; text-decoration-color: initial;&quot; color=&quot;#0000ff&quot;&gt;&lt;span style=&quot;font-family: Helvetica; font-size: 12px; font-style: normal; font-variant-ligatures: normal; font-variant-caps: normal; font-weight: 400; letter-spacing: normal; orphans: 2; text-align: left; text-indent: 0px; text-transform: none; widows: 2; word-spacing: 0px; -webkit-text-stroke-width: 0px; background-color: rgb(248, 249, 250); text-decoration-thickness: initial; text-decoration-style: initial; text-decoration-color: initial; float: none; display: inline !important;&quot;&gt;&amp;nbsp; &amp;nbsp; &amp;nbsp; book_univers_id : int&lt;/span&gt;&lt;br style=&quot;padding: 0px; margin: 0px; font-family: Helvetica; font-size: 12px; font-style: normal; font-variant-ligatures: normal; font-variant-caps: normal; font-weight: 400; letter-spacing: normal; orphans: 2; text-align: left; text-indent: 0px; text-transform: none; widows: 2; word-spacing: 0px; -webkit-text-stroke-width: 0px; background-color: rgb(248, 249, 250); text-decoration-thickness: initial; text-decoration-style: initial; text-decoration-color: initial;&quot;&gt;&lt;/font&gt;" style="text;whiteSpace=wrap;html=1;fontColor=#0000FF;" parent="AN9EAjbtdKbISoLZVyTg-17" vertex="1">
          <mxGeometry x="3.829999999999984" y="281" width="140" height="20" as="geometry" />
        </mxCell>
        <mxCell id="AN9EAjbtdKbISoLZVyTg-5" value="" style="group" vertex="1" connectable="0" parent="AN9EAjbtdKbISoLZVyTg-17">
          <mxGeometry width="142.82999999999993" height="360" as="geometry" />
        </mxCell>
        <mxCell id="G9khIPw7my-z3GdnAK4o-1" value="books" style="swimlane;fontStyle=0;childLayout=stackLayout;horizontal=1;startSize=26;fillColor=none;horizontalStack=0;resizeParent=1;resizeParentMax=0;resizeLast=0;collapsible=1;marginBottom=0;" parent="AN9EAjbtdKbISoLZVyTg-5" vertex="1">
          <mxGeometry width="140" height="360" as="geometry" />
        </mxCell>
        <mxCell id="G9khIPw7my-z3GdnAK4o-2" value="     book_id : int" style="text;strokeColor=none;fillColor=none;align=left;verticalAlign=top;spacingLeft=4;spacingRight=4;overflow=hidden;rotatable=0;points=[[0,0.5],[1,0.5]];portConstraint=eastwest;fontColor=#FF0000;" parent="G9khIPw7my-z3GdnAK4o-1" vertex="1">
          <mxGeometry y="26" width="140" height="26" as="geometry" />
        </mxCell>
        <mxCell id="G9khIPw7my-z3GdnAK4o-3" value="title : varchar&#xa;publication_date : date&#xa;cover : file&#xa;summary : text&#xa;extract : text&#xa;number_page : int&#xa;creation_date : date&#xa;best_seller : bool&#xa;number_sale : int&#xa;stock_quantity : int&#xa;created_at : date" style="text;strokeColor=none;fillColor=none;align=left;verticalAlign=top;spacingLeft=4;spacingRight=4;overflow=hidden;rotatable=0;points=[[0,0.5],[1,0.5]];portConstraint=eastwest;" parent="G9khIPw7my-z3GdnAK4o-1" vertex="1">
          <mxGeometry y="52" width="140" height="308" as="geometry" />
        </mxCell>
        <mxCell id="G9khIPw7my-z3GdnAK4o-76" value="" style="points=[[0,0.5,0],[0.24,0,0],[0.5,0.28,0],[0.995,0.475,0],[0.5,0.72,0],[0.24,1,0]];verticalLabelPosition=bottom;sketch=0;html=1;verticalAlign=top;aspect=fixed;align=center;pointerEvents=1;shape=mxgraph.cisco19.key;fillColor=#e3c800;strokeColor=#B09500;fontColor=#000000;direction=north;" parent="AN9EAjbtdKbISoLZVyTg-5" vertex="1">
          <mxGeometry x="5" y="31" width="11.65" height="25.89" as="geometry" />
        </mxCell>
        <mxCell id="G9khIPw7my-z3GdnAK4o-77" value="&lt;font style=&quot;font-family: Helvetica; font-size: 12px; font-style: normal; font-variant-ligatures: normal; font-variant-caps: normal; font-weight: 400; letter-spacing: normal; orphans: 2; text-align: left; text-indent: 0px; text-transform: none; widows: 2; word-spacing: 0px; -webkit-text-stroke-width: 0px; background-color: rgb(248, 249, 250); text-decoration-thickness: initial; text-decoration-style: initial; text-decoration-color: initial;&quot; color=&quot;#0000ff&quot;&gt;&lt;span style=&quot;font-family: Helvetica; font-size: 12px; font-style: normal; font-variant-ligatures: normal; font-variant-caps: normal; font-weight: 400; letter-spacing: normal; orphans: 2; text-align: left; text-indent: 0px; text-transform: none; widows: 2; word-spacing: 0px; -webkit-text-stroke-width: 0px; background-color: rgb(248, 249, 250); text-decoration-thickness: initial; text-decoration-style: initial; text-decoration-color: initial; float: none; display: inline !important;&quot;&gt;&amp;nbsp; &amp;nbsp; &amp;nbsp; book_type_id : int&lt;/span&gt;&lt;br style=&quot;padding: 0px; margin: 0px; font-family: Helvetica; font-size: 12px; font-style: normal; font-variant-ligatures: normal; font-variant-caps: normal; font-weight: 400; letter-spacing: normal; orphans: 2; text-align: left; text-indent: 0px; text-transform: none; widows: 2; word-spacing: 0px; -webkit-text-stroke-width: 0px; background-color: rgb(248, 249, 250); text-decoration-thickness: initial; text-decoration-style: initial; text-decoration-color: initial;&quot;&gt;&lt;/font&gt;" style="text;whiteSpace=wrap;html=1;fontColor=#0000FF;" parent="AN9EAjbtdKbISoLZVyTg-5" vertex="1">
          <mxGeometry x="0.8299999999999841" y="223" width="140" height="20" as="geometry" />
        </mxCell>
        <mxCell id="G9khIPw7my-z3GdnAK4o-82" value="&lt;font style=&quot;font-family: Helvetica; font-size: 12px; font-style: normal; font-variant-ligatures: normal; font-variant-caps: normal; font-weight: 400; letter-spacing: normal; orphans: 2; text-align: left; text-indent: 0px; text-transform: none; widows: 2; word-spacing: 0px; -webkit-text-stroke-width: 0px; background-color: rgb(248, 249, 250); text-decoration-thickness: initial; text-decoration-style: initial; text-decoration-color: initial;&quot; color=&quot;#0000ff&quot;&gt;&lt;span style=&quot;font-family: Helvetica; font-size: 12px; font-style: normal; font-variant-ligatures: normal; font-variant-caps: normal; font-weight: 400; letter-spacing: normal; orphans: 2; text-align: left; text-indent: 0px; text-transform: none; widows: 2; word-spacing: 0px; -webkit-text-stroke-width: 0px; background-color: rgb(248, 249, 250); text-decoration-thickness: initial; text-decoration-style: initial; text-decoration-color: initial; float: none; display: inline !important;&quot;&gt;&amp;nbsp; &amp;nbsp; &amp;nbsp; book_serial_id : int&lt;/span&gt;&lt;br style=&quot;padding: 0px; margin: 0px; font-family: Helvetica; font-size: 12px; font-style: normal; font-variant-ligatures: normal; font-variant-caps: normal; font-weight: 400; letter-spacing: normal; orphans: 2; text-align: left; text-indent: 0px; text-transform: none; widows: 2; word-spacing: 0px; -webkit-text-stroke-width: 0px; background-color: rgb(248, 249, 250); text-decoration-thickness: initial; text-decoration-style: initial; text-decoration-color: initial;&quot;&gt;&lt;/font&gt;" style="text;whiteSpace=wrap;html=1;fontColor=#0000FF;" parent="AN9EAjbtdKbISoLZVyTg-5" vertex="1">
          <mxGeometry x="2.829999999999984" y="249" width="140" height="20" as="geometry" />
        </mxCell>
        <mxCell id="G9khIPw7my-z3GdnAK4o-87" value="" style="points=[[0,0.5,0],[0.24,0,0],[0.5,0.28,0],[0.995,0.475,0],[0.5,0.72,0],[0.24,1,0]];verticalLabelPosition=bottom;sketch=0;html=1;verticalAlign=top;aspect=fixed;align=center;pointerEvents=1;shape=mxgraph.cisco19.key;fillColor=#bac8d3;strokeColor=#23445d;direction=north;" parent="AN9EAjbtdKbISoLZVyTg-5" vertex="1">
          <mxGeometry x="5" y="224" width="11.65" height="25.89" as="geometry" />
        </mxCell>
        <mxCell id="G9khIPw7my-z3GdnAK4o-88" value="" style="points=[[0,0.5,0],[0.24,0,0],[0.5,0.28,0],[0.995,0.475,0],[0.5,0.72,0],[0.24,1,0]];verticalLabelPosition=bottom;sketch=0;html=1;verticalAlign=top;aspect=fixed;align=center;pointerEvents=1;shape=mxgraph.cisco19.key;fillColor=#bac8d3;strokeColor=#23445d;direction=north;" parent="AN9EAjbtdKbISoLZVyTg-5" vertex="1">
          <mxGeometry x="4" y="252.04999999999995" width="11.65" height="25.89" as="geometry" />
        </mxCell>
        <mxCell id="G9khIPw7my-z3GdnAK4o-94" value="" style="points=[[0,0.5,0],[0.24,0,0],[0.5,0.28,0],[0.995,0.475,0],[0.5,0.72,0],[0.24,1,0]];verticalLabelPosition=bottom;sketch=0;html=1;verticalAlign=top;aspect=fixed;align=center;pointerEvents=1;shape=mxgraph.cisco19.key;fillColor=#bac8d3;strokeColor=#23445d;direction=north;" parent="AN9EAjbtdKbISoLZVyTg-5" vertex="1">
          <mxGeometry x="5" y="282.05999999999995" width="11.65" height="25.89" as="geometry" />
        </mxCell>
        <mxCell id="AN9EAjbtdKbISoLZVyTg-15" value="&lt;font style=&quot;font-family: Helvetica; font-size: 12px; font-style: normal; font-variant-ligatures: normal; font-variant-caps: normal; font-weight: 400; letter-spacing: normal; orphans: 2; text-align: left; text-indent: 0px; text-transform: none; widows: 2; word-spacing: 0px; -webkit-text-stroke-width: 0px; background-color: rgb(248, 249, 250); text-decoration-thickness: initial; text-decoration-style: initial; text-decoration-color: initial;&quot; color=&quot;#0000ff&quot;&gt;&lt;span style=&quot;font-family: Helvetica; font-size: 12px; font-style: normal; font-variant-ligatures: normal; font-variant-caps: normal; font-weight: 400; letter-spacing: normal; orphans: 2; text-align: left; text-indent: 0px; text-transform: none; widows: 2; word-spacing: 0px; -webkit-text-stroke-width: 0px; background-color: rgb(248, 249, 250); text-decoration-thickness: initial; text-decoration-style: initial; text-decoration-color: initial; float: none; display: inline !important;&quot;&gt;&amp;nbsp; &amp;nbsp; &amp;nbsp; format_id : int&lt;/span&gt;&lt;br style=&quot;padding: 0px; margin: 0px; font-family: Helvetica; font-size: 12px; font-style: normal; font-variant-ligatures: normal; font-variant-caps: normal; font-weight: 400; letter-spacing: normal; orphans: 2; text-align: left; text-indent: 0px; text-transform: none; widows: 2; word-spacing: 0px; -webkit-text-stroke-width: 0px; background-color: rgb(248, 249, 250); text-decoration-thickness: initial; text-decoration-style: initial; text-decoration-color: initial;&quot;&gt;&lt;/font&gt;" style="text;whiteSpace=wrap;html=1;fontColor=#0000FF;" vertex="1" parent="AN9EAjbtdKbISoLZVyTg-17">
          <mxGeometry x="3.829999999999984" y="311" width="140" height="20" as="geometry" />
        </mxCell>
        <mxCell id="AN9EAjbtdKbISoLZVyTg-16" value="" style="points=[[0,0.5,0],[0.24,0,0],[0.5,0.28,0],[0.995,0.475,0],[0.5,0.72,0],[0.24,1,0]];verticalLabelPosition=bottom;sketch=0;html=1;verticalAlign=top;aspect=fixed;align=center;pointerEvents=1;shape=mxgraph.cisco19.key;fillColor=#bac8d3;strokeColor=#23445d;direction=north;" vertex="1" parent="AN9EAjbtdKbISoLZVyTg-17">
          <mxGeometry x="7" y="313.05999999999995" width="11.65" height="25.89" as="geometry" />
        </mxCell>
        <mxCell id="AN9EAjbtdKbISoLZVyTg-36" style="edgeStyle=orthogonalEdgeStyle;rounded=0;orthogonalLoop=1;jettySize=auto;html=1;exitX=0.003;exitY=0.618;exitDx=0;exitDy=0;entryX=1;entryY=0.5;entryDx=0;entryDy=0;fontColor=#FF0000;endArrow=none;endFill=0;exitPerimeter=0;" edge="1" parent="1" source="G9khIPw7my-z3GdnAK4o-35" target="G9khIPw7my-z3GdnAK4o-10">
          <mxGeometry relative="1" as="geometry">
            <Array as="points">
              <mxPoint x="1268" y="605" />
              <mxPoint x="1268" y="441" />
            </Array>
          </mxGeometry>
        </mxCell>
        <mxCell id="AN9EAjbtdKbISoLZVyTg-34" value="&lt;font color=&quot;#000000&quot;&gt;*&lt;/font&gt;" style="text;html=1;strokeColor=none;fillColor=none;align=center;verticalAlign=middle;whiteSpace=wrap;rounded=0;fontColor=#FF0000;" vertex="1" parent="1">
          <mxGeometry x="1270" y="626" width="60" height="30" as="geometry" />
        </mxCell>
        <mxCell id="AN9EAjbtdKbISoLZVyTg-35" value="&lt;font color=&quot;#000000&quot;&gt;1&lt;/font&gt;" style="text;html=1;strokeColor=none;fillColor=none;align=center;verticalAlign=middle;whiteSpace=wrap;rounded=0;fontColor=#FF0000;" vertex="1" parent="1">
          <mxGeometry x="1145" y="730.94" width="60" height="30" as="geometry" />
        </mxCell>
        <mxCell id="AN9EAjbtdKbISoLZVyTg-37" value="&lt;font color=&quot;#000000&quot;&gt;*&lt;/font&gt;" style="text;html=1;strokeColor=none;fillColor=none;align=center;verticalAlign=middle;whiteSpace=wrap;rounded=0;fontColor=#FF0000;" vertex="1" parent="1">
          <mxGeometry x="1287" y="582" width="22" height="22" as="geometry" />
        </mxCell>
        <mxCell id="AN9EAjbtdKbISoLZVyTg-38" value="&lt;font color=&quot;#000000&quot;&gt;1&lt;/font&gt;" style="text;html=1;strokeColor=none;fillColor=none;align=center;verticalAlign=middle;whiteSpace=wrap;rounded=0;fontColor=#FF0000;" vertex="1" parent="1">
          <mxGeometry x="1207" y="447.89" width="60" height="18" as="geometry" />
        </mxCell>
        <mxCell id="AN9EAjbtdKbISoLZVyTg-43" style="edgeStyle=orthogonalEdgeStyle;rounded=0;orthogonalLoop=1;jettySize=auto;html=1;entryX=1;entryY=0.5;entryDx=0;entryDy=0;fontColor=#FF0000;exitX=-0.014;exitY=0.851;exitDx=0;exitDy=0;exitPerimeter=0;endArrow=none;endFill=0;" edge="1" parent="1" source="G9khIPw7my-z3GdnAK4o-35" target="G9khIPw7my-z3GdnAK4o-2">
          <mxGeometry relative="1" as="geometry">
            <Array as="points">
              <mxPoint x="1208" y="631" />
              <mxPoint x="1208" y="759" />
            </Array>
          </mxGeometry>
        </mxCell>
        <mxCell id="AN9EAjbtdKbISoLZVyTg-44" value="" style="points=[[0,0.5,0],[0.24,0,0],[0.5,0.28,0],[0.995,0.475,0],[0.5,0.72,0],[0.24,1,0]];verticalLabelPosition=bottom;sketch=0;html=1;verticalAlign=top;aspect=fixed;align=center;pointerEvents=1;shape=mxgraph.cisco19.key;fillColor=#e3c800;strokeColor=#B09500;fontColor=#000000;direction=north;" vertex="1" parent="1">
          <mxGeometry x="545" y="422" width="11.65" height="25.89" as="geometry" />
        </mxCell>
        <mxCell id="AN9EAjbtdKbISoLZVyTg-45" value="" style="points=[[0,0.5,0],[0.24,0,0],[0.5,0.28,0],[0.995,0.475,0],[0.5,0.72,0],[0.24,1,0]];verticalLabelPosition=bottom;sketch=0;html=1;verticalAlign=top;aspect=fixed;align=center;pointerEvents=1;shape=mxgraph.cisco19.key;fillColor=#bac8d3;strokeColor=#23445d;direction=north;" vertex="1" parent="1">
          <mxGeometry x="545" y="451" width="11.65" height="25.89" as="geometry" />
        </mxCell>
        <mxCell id="AN9EAjbtdKbISoLZVyTg-47" style="edgeStyle=orthogonalEdgeStyle;rounded=0;orthogonalLoop=1;jettySize=auto;html=1;entryX=0.575;entryY=-0.738;entryDx=0;entryDy=0;entryPerimeter=0;fontColor=#0000FF;endArrow=none;endFill=0;exitX=1.011;exitY=0.249;exitDx=0;exitDy=0;exitPerimeter=0;" edge="1" parent="1" source="G9khIPw7my-z3GdnAK4o-7" target="G9khIPw7my-z3GdnAK4o-53">
          <mxGeometry relative="1" as="geometry">
            <Array as="points">
              <mxPoint x="1030" y="465" />
              <mxPoint x="1030" y="441" />
            </Array>
          </mxGeometry>
        </mxCell>
        <mxCell id="AN9EAjbtdKbISoLZVyTg-48" value="&lt;font color=&quot;#000000&quot;&gt;1&lt;/font&gt;" style="text;html=1;strokeColor=none;fillColor=none;align=center;verticalAlign=middle;whiteSpace=wrap;rounded=0;fontColor=#FF0000;" vertex="1" parent="1">
          <mxGeometry x="683" y="441" width="22" height="18" as="geometry" />
        </mxCell>
        <mxCell id="AN9EAjbtdKbISoLZVyTg-58" style="edgeStyle=orthogonalEdgeStyle;rounded=0;orthogonalLoop=1;jettySize=auto;html=1;entryX=0.429;entryY=1.008;entryDx=0;entryDy=0;entryPerimeter=0;fontColor=#0000FF;exitX=0.5;exitY=0;exitDx=0;exitDy=0;dashed=1;endArrow=none;endFill=0;" edge="1" parent="1" source="AN9EAjbtdKbISoLZVyTg-49" target="G9khIPw7my-z3GdnAK4o-7">
          <mxGeometry relative="1" as="geometry">
            <mxPoint x="808" y="580" as="sourcePoint" />
            <Array as="points">
              <mxPoint x="572" y="570" />
              <mxPoint x="600" y="570" />
            </Array>
          </mxGeometry>
        </mxCell>
        <mxCell id="AN9EAjbtdKbISoLZVyTg-57" style="edgeStyle=orthogonalEdgeStyle;rounded=0;orthogonalLoop=1;jettySize=auto;html=1;exitX=0.5;exitY=0;exitDx=0;exitDy=0;fontColor=#0000FF;dashed=1;endArrow=none;endFill=0;entryX=0.5;entryY=0;entryDx=0;entryDy=0;" edge="1" parent="1" source="AN9EAjbtdKbISoLZVyTg-49" target="G9khIPw7my-z3GdnAK4o-1">
          <mxGeometry relative="1" as="geometry">
            <mxPoint x="1028" y="769" as="targetPoint" />
            <Array as="points">
              <mxPoint x="572" y="570" />
              <mxPoint x="660" y="570" />
              <mxPoint x="660" y="670" />
              <mxPoint x="1098" y="670" />
            </Array>
          </mxGeometry>
        </mxCell>
        <mxCell id="AN9EAjbtdKbISoLZVyTg-59" value="&lt;font color=&quot;#000000&quot;&gt;*&lt;/font&gt;" style="text;html=1;strokeColor=none;fillColor=none;align=center;verticalAlign=middle;whiteSpace=wrap;rounded=0;fontColor=#FF0000;" vertex="1" parent="1">
          <mxGeometry x="599" y="524" width="22" height="20" as="geometry" />
        </mxCell>
        <mxCell id="AN9EAjbtdKbISoLZVyTg-60" value="&lt;font color=&quot;#000000&quot;&gt;*&lt;/font&gt;" style="text;html=1;strokeColor=none;fillColor=none;align=center;verticalAlign=middle;whiteSpace=wrap;rounded=0;fontColor=#FF0000;" vertex="1" parent="1">
          <mxGeometry x="544.5" y="571" width="29.5" height="18" as="geometry" />
        </mxCell>
        <mxCell id="AN9EAjbtdKbISoLZVyTg-62" value="&lt;font color=&quot;#000000&quot;&gt;*&lt;/font&gt;" style="text;html=1;strokeColor=none;fillColor=none;align=center;verticalAlign=middle;whiteSpace=wrap;rounded=0;fontColor=#FF0000;" vertex="1" parent="1">
          <mxGeometry x="1100" y="694.8900000000001" width="20" height="30" as="geometry" />
        </mxCell>
        <mxCell id="AN9EAjbtdKbISoLZVyTg-63" value="" style="group" vertex="1" connectable="0" parent="1">
          <mxGeometry x="502" y="586" width="141" height="130" as="geometry" />
        </mxCell>
        <mxCell id="AN9EAjbtdKbISoLZVyTg-49" value="book_cart" style="swimlane;fontStyle=0;childLayout=stackLayout;horizontal=1;startSize=26;fillColor=none;horizontalStack=0;resizeParent=1;resizeParentMax=0;resizeLast=0;collapsible=1;marginBottom=0;" vertex="1" parent="AN9EAjbtdKbISoLZVyTg-63">
          <mxGeometry width="140" height="130" as="geometry" />
        </mxCell>
        <mxCell id="AN9EAjbtdKbISoLZVyTg-53" value="    cart_id" style="text;strokeColor=none;fillColor=none;align=left;verticalAlign=top;spacingLeft=4;spacingRight=4;overflow=hidden;rotatable=0;points=[[0,0.5],[1,0.5]];portConstraint=eastwest;fontColor=#0000FF;" vertex="1" parent="AN9EAjbtdKbISoLZVyTg-49">
          <mxGeometry y="26" width="140" height="104" as="geometry" />
        </mxCell>
        <mxCell id="AN9EAjbtdKbISoLZVyTg-54" value="" style="points=[[0,0.5,0],[0.24,0,0],[0.5,0.28,0],[0.995,0.475,0],[0.5,0.72,0],[0.24,1,0]];verticalLabelPosition=bottom;sketch=0;html=1;verticalAlign=top;aspect=fixed;align=center;pointerEvents=1;shape=mxgraph.cisco19.key;fillColor=#bac8d3;strokeColor=#23445d;direction=north;" vertex="1" parent="AN9EAjbtdKbISoLZVyTg-63">
          <mxGeometry x="4" y="30" width="11.65" height="25.89" as="geometry" />
        </mxCell>
        <mxCell id="AN9EAjbtdKbISoLZVyTg-55" value="    book_id" style="text;strokeColor=none;fillColor=none;align=left;verticalAlign=top;spacingLeft=4;spacingRight=4;overflow=hidden;rotatable=0;points=[[0,0.5],[1,0.5]];portConstraint=eastwest;fontColor=#0000FF;" vertex="1" parent="AN9EAjbtdKbISoLZVyTg-63">
          <mxGeometry x="1" y="55" width="140" height="38" as="geometry" />
        </mxCell>
        <mxCell id="AN9EAjbtdKbISoLZVyTg-56" value="" style="points=[[0,0.5,0],[0.24,0,0],[0.5,0.28,0],[0.995,0.475,0],[0.5,0.72,0],[0.24,1,0]];verticalLabelPosition=bottom;sketch=0;html=1;verticalAlign=top;aspect=fixed;align=center;pointerEvents=1;shape=mxgraph.cisco19.key;fillColor=#bac8d3;strokeColor=#23445d;direction=north;" vertex="1" parent="AN9EAjbtdKbISoLZVyTg-63">
          <mxGeometry x="5" y="59" width="11.65" height="25.89" as="geometry" />
        </mxCell>
        <mxCell id="AN9EAjbtdKbISoLZVyTg-64" value=" book_quantity : int&#xa;update_at : date" style="text;strokeColor=none;fillColor=none;align=left;verticalAlign=top;spacingLeft=4;spacingRight=4;overflow=hidden;rotatable=0;points=[[0,0.5],[1,0.5]];portConstraint=eastwest;fontColor=#000000;" vertex="1" parent="1">
          <mxGeometry x="542" y="479" width="125" height="51" as="geometry" />
        </mxCell>
        <mxCell id="AN9EAjbtdKbISoLZVyTg-74" value="" style="group" vertex="1" connectable="0" parent="1">
          <mxGeometry x="620" y="751" width="140" height="100" as="geometry" />
        </mxCell>
        <mxCell id="G9khIPw7my-z3GdnAK4o-29" value="books_genres" style="swimlane;fontStyle=0;childLayout=stackLayout;horizontal=1;startSize=26;fillColor=none;horizontalStack=0;resizeParent=1;resizeParentMax=0;resizeLast=0;collapsible=1;marginBottom=0;" parent="AN9EAjbtdKbISoLZVyTg-74" vertex="1">
          <mxGeometry width="140" height="100" as="geometry" />
        </mxCell>
        <mxCell id="G9khIPw7my-z3GdnAK4o-30" value="     book_genre_id : int" style="text;strokeColor=none;fillColor=none;align=left;verticalAlign=top;spacingLeft=4;spacingRight=4;overflow=hidden;rotatable=0;points=[[0,0.5],[1,0.5]];portConstraint=eastwest;fontColor=#FF0000;" parent="G9khIPw7my-z3GdnAK4o-29" vertex="1">
          <mxGeometry y="26" width="140" height="26" as="geometry" />
        </mxCell>
        <mxCell id="G9khIPw7my-z3GdnAK4o-31" value="name : varchar&#xa;number_sale : int&#xa;logo : varchar" style="text;strokeColor=none;fillColor=none;align=left;verticalAlign=top;spacingLeft=4;spacingRight=4;overflow=hidden;rotatable=0;points=[[0,0.5],[1,0.5]];portConstraint=eastwest;" parent="G9khIPw7my-z3GdnAK4o-29" vertex="1">
          <mxGeometry y="52" width="140" height="48" as="geometry" />
        </mxCell>
        <mxCell id="AN9EAjbtdKbISoLZVyTg-73" value="" style="points=[[0,0.5,0],[0.24,0,0],[0.5,0.28,0],[0.995,0.475,0],[0.5,0.72,0],[0.24,1,0]];verticalLabelPosition=bottom;sketch=0;html=1;verticalAlign=top;aspect=fixed;align=center;pointerEvents=1;shape=mxgraph.cisco19.key;fillColor=#e3c800;strokeColor=#B09500;fontColor=#000000;direction=north;" vertex="1" parent="AN9EAjbtdKbISoLZVyTg-74">
          <mxGeometry x="4.350000000000023" y="29.110000000000014" width="11.65" height="25.89" as="geometry" />
        </mxCell>
        <mxCell id="AN9EAjbtdKbISoLZVyTg-84" style="edgeStyle=orthogonalEdgeStyle;rounded=0;orthogonalLoop=1;jettySize=auto;html=1;entryX=0.5;entryY=0;entryDx=0;entryDy=0;fontColor=#FF0000;endArrow=none;endFill=0;exitX=0.63;exitY=-0.012;exitDx=0;exitDy=0;dashed=1;exitPerimeter=0;" edge="1" parent="1" source="AN9EAjbtdKbISoLZVyTg-75" target="G9khIPw7my-z3GdnAK4o-29">
          <mxGeometry relative="1" as="geometry">
            <mxPoint x="800" y="790" as="sourcePoint" />
            <Array as="points">
              <mxPoint x="893" y="690" />
              <mxPoint x="690" y="690" />
            </Array>
          </mxGeometry>
        </mxCell>
        <mxCell id="AN9EAjbtdKbISoLZVyTg-83" style="edgeStyle=orthogonalEdgeStyle;rounded=0;orthogonalLoop=1;jettySize=auto;html=1;fontColor=#FF0000;endArrow=none;endFill=0;dashed=1;entryX=0.409;entryY=-0.009;entryDx=0;entryDy=0;entryPerimeter=0;" edge="1" parent="1" source="AN9EAjbtdKbISoLZVyTg-75" target="G9khIPw7my-z3GdnAK4o-1">
          <mxGeometry relative="1" as="geometry">
            <mxPoint x="968" y="868" as="sourcePoint" />
            <mxPoint x="1028" y="770" as="targetPoint" />
            <Array as="points">
              <mxPoint x="892" y="690" />
              <mxPoint x="1085" y="690" />
            </Array>
          </mxGeometry>
        </mxCell>
        <mxCell id="AN9EAjbtdKbISoLZVyTg-87" value="&lt;font color=&quot;#000000&quot;&gt;1..*&lt;/font&gt;" style="text;html=1;strokeColor=none;fillColor=none;align=center;verticalAlign=middle;whiteSpace=wrap;rounded=0;fontColor=#FF0000;" vertex="1" parent="1">
          <mxGeometry x="857" y="728" width="32" height="15" as="geometry" />
        </mxCell>
        <mxCell id="AN9EAjbtdKbISoLZVyTg-88" value="&lt;font color=&quot;#000000&quot;&gt;1..*&lt;/font&gt;" style="text;html=1;strokeColor=none;fillColor=none;align=center;verticalAlign=middle;whiteSpace=wrap;rounded=0;fontColor=#FF0000;" vertex="1" parent="1">
          <mxGeometry x="1006" y="698.92" width="60" height="21.94" as="geometry" />
        </mxCell>
        <mxCell id="AN9EAjbtdKbISoLZVyTg-92" value="" style="group" vertex="1" connectable="0" parent="1">
          <mxGeometry x="800" y="743" width="151" height="100" as="geometry" />
        </mxCell>
        <mxCell id="AN9EAjbtdKbISoLZVyTg-75" value="book_book_genre" style="swimlane;fontStyle=0;childLayout=stackLayout;horizontal=1;startSize=26;fillColor=none;horizontalStack=0;resizeParent=1;resizeParentMax=0;resizeLast=0;collapsible=1;marginBottom=0;" vertex="1" parent="AN9EAjbtdKbISoLZVyTg-92">
          <mxGeometry width="148" height="100" as="geometry" />
        </mxCell>
        <mxCell id="AN9EAjbtdKbISoLZVyTg-79" value="    book_genre_id : int" style="text;strokeColor=none;fillColor=none;align=left;verticalAlign=top;spacingLeft=4;spacingRight=4;overflow=hidden;rotatable=0;points=[[0,0.5],[1,0.5]];portConstraint=eastwest;fontColor=#0000FF;" vertex="1" parent="AN9EAjbtdKbISoLZVyTg-92">
          <mxGeometry x="10" y="30" width="140" height="64" as="geometry" />
        </mxCell>
        <mxCell id="AN9EAjbtdKbISoLZVyTg-80" value="" style="points=[[0,0.5,0],[0.24,0,0],[0.5,0.28,0],[0.995,0.475,0],[0.5,0.72,0],[0.24,1,0]];verticalLabelPosition=bottom;sketch=0;html=1;verticalAlign=top;aspect=fixed;align=center;pointerEvents=1;shape=mxgraph.cisco19.key;fillColor=#bac8d3;strokeColor=#23445d;direction=north;" vertex="1" parent="AN9EAjbtdKbISoLZVyTg-92">
          <mxGeometry x="14" y="34" width="11.65" height="25.89" as="geometry" />
        </mxCell>
        <mxCell id="AN9EAjbtdKbISoLZVyTg-81" value="    book_id : int" style="text;strokeColor=none;fillColor=none;align=left;verticalAlign=top;spacingLeft=4;spacingRight=4;overflow=hidden;rotatable=0;points=[[0,0.5],[1,0.5]];portConstraint=eastwest;fontColor=#0000FF;" vertex="1" parent="AN9EAjbtdKbISoLZVyTg-92">
          <mxGeometry x="11" y="59" width="140" height="38" as="geometry" />
        </mxCell>
        <mxCell id="AN9EAjbtdKbISoLZVyTg-82" value="" style="points=[[0,0.5,0],[0.24,0,0],[0.5,0.28,0],[0.995,0.475,0],[0.5,0.72,0],[0.24,1,0]];verticalLabelPosition=bottom;sketch=0;html=1;verticalAlign=top;aspect=fixed;align=center;pointerEvents=1;shape=mxgraph.cisco19.key;fillColor=#bac8d3;strokeColor=#23445d;direction=north;" vertex="1" parent="AN9EAjbtdKbISoLZVyTg-92">
          <mxGeometry x="15" y="63" width="11.65" height="25.89" as="geometry" />
        </mxCell>
        <mxCell id="AN9EAjbtdKbISoLZVyTg-93" value="" style="group" vertex="1" connectable="0" parent="1">
          <mxGeometry x="635" y="901" width="140" height="170" as="geometry" />
        </mxCell>
        <mxCell id="AN9EAjbtdKbISoLZVyTg-94" value="edition_houses" style="swimlane;fontStyle=0;childLayout=stackLayout;horizontal=1;startSize=26;fillColor=none;horizontalStack=0;resizeParent=1;resizeParentMax=0;resizeLast=0;collapsible=1;marginBottom=0;" vertex="1" parent="AN9EAjbtdKbISoLZVyTg-93">
          <mxGeometry width="140" height="150" as="geometry" />
        </mxCell>
        <mxCell id="AN9EAjbtdKbISoLZVyTg-95" value="     edition_id : int" style="text;strokeColor=none;fillColor=none;align=left;verticalAlign=top;spacingLeft=4;spacingRight=4;overflow=hidden;rotatable=0;points=[[0,0.5],[1,0.5]];portConstraint=eastwest;fontColor=#FF0000;" vertex="1" parent="AN9EAjbtdKbISoLZVyTg-94">
          <mxGeometry y="26" width="140" height="26" as="geometry" />
        </mxCell>
        <mxCell id="AN9EAjbtdKbISoLZVyTg-96" value="name : varchar&#xa;logo : file&#xa;created_at : date&#xa;number_phone : varchar&#xa;email : varchar&#xa;biography : text" style="text;strokeColor=none;fillColor=none;align=left;verticalAlign=top;spacingLeft=4;spacingRight=4;overflow=hidden;rotatable=0;points=[[0,0.5],[1,0.5]];portConstraint=eastwest;" vertex="1" parent="AN9EAjbtdKbISoLZVyTg-94">
          <mxGeometry y="52" width="140" height="98" as="geometry" />
        </mxCell>
        <mxCell id="AN9EAjbtdKbISoLZVyTg-97" value="" style="points=[[0,0.5,0],[0.24,0,0],[0.5,0.28,0],[0.995,0.475,0],[0.5,0.72,0],[0.24,1,0]];verticalLabelPosition=bottom;sketch=0;html=1;verticalAlign=top;aspect=fixed;align=center;pointerEvents=1;shape=mxgraph.cisco19.key;fillColor=#e3c800;strokeColor=#B09500;fontColor=#000000;direction=north;" vertex="1" parent="AN9EAjbtdKbISoLZVyTg-93">
          <mxGeometry x="4.350000000000023" y="29.110000000000014" width="11.65" height="25.89" as="geometry" />
        </mxCell>
        <mxCell id="AN9EAjbtdKbISoLZVyTg-98" style="edgeStyle=orthogonalEdgeStyle;rounded=0;orthogonalLoop=1;jettySize=auto;html=1;entryX=0.5;entryY=0;entryDx=0;entryDy=0;fontColor=#FF0000;endArrow=none;endFill=0;exitX=0.5;exitY=0;exitDx=0;exitDy=0;dashed=1;" edge="1" parent="1" target="AN9EAjbtdKbISoLZVyTg-94" source="AN9EAjbtdKbISoLZVyTg-102">
          <mxGeometry relative="1" as="geometry">
            <mxPoint x="815" y="940" as="sourcePoint" />
            <Array as="points">
              <mxPoint x="889" y="870" />
              <mxPoint x="705" y="870" />
            </Array>
          </mxGeometry>
        </mxCell>
        <mxCell id="AN9EAjbtdKbISoLZVyTg-101" value="" style="group" vertex="1" connectable="0" parent="1">
          <mxGeometry x="815" y="893" width="151" height="100" as="geometry" />
        </mxCell>
        <mxCell id="AN9EAjbtdKbISoLZVyTg-102" value="book_edition_house" style="swimlane;fontStyle=0;childLayout=stackLayout;horizontal=1;startSize=26;fillColor=none;horizontalStack=0;resizeParent=1;resizeParentMax=0;resizeLast=0;collapsible=1;marginBottom=0;" vertex="1" parent="AN9EAjbtdKbISoLZVyTg-101">
          <mxGeometry width="148" height="100" as="geometry" />
        </mxCell>
        <mxCell id="AN9EAjbtdKbISoLZVyTg-103" value="    edition_id : int" style="text;strokeColor=none;fillColor=none;align=left;verticalAlign=top;spacingLeft=4;spacingRight=4;overflow=hidden;rotatable=0;points=[[0,0.5],[1,0.5]];portConstraint=eastwest;fontColor=#0000FF;" vertex="1" parent="AN9EAjbtdKbISoLZVyTg-101">
          <mxGeometry x="10" y="30" width="140" height="64" as="geometry" />
        </mxCell>
        <mxCell id="AN9EAjbtdKbISoLZVyTg-104" value="" style="points=[[0,0.5,0],[0.24,0,0],[0.5,0.28,0],[0.995,0.475,0],[0.5,0.72,0],[0.24,1,0]];verticalLabelPosition=bottom;sketch=0;html=1;verticalAlign=top;aspect=fixed;align=center;pointerEvents=1;shape=mxgraph.cisco19.key;fillColor=#bac8d3;strokeColor=#23445d;direction=north;" vertex="1" parent="AN9EAjbtdKbISoLZVyTg-101">
          <mxGeometry x="14" y="34" width="11.65" height="25.89" as="geometry" />
        </mxCell>
        <mxCell id="AN9EAjbtdKbISoLZVyTg-105" value="    book_id : int" style="text;strokeColor=none;fillColor=none;align=left;verticalAlign=top;spacingLeft=4;spacingRight=4;overflow=hidden;rotatable=0;points=[[0,0.5],[1,0.5]];portConstraint=eastwest;fontColor=#0000FF;" vertex="1" parent="AN9EAjbtdKbISoLZVyTg-101">
          <mxGeometry x="11" y="59" width="140" height="38" as="geometry" />
        </mxCell>
        <mxCell id="AN9EAjbtdKbISoLZVyTg-106" value="" style="points=[[0,0.5,0],[0.24,0,0],[0.5,0.28,0],[0.995,0.475,0],[0.5,0.72,0],[0.24,1,0]];verticalLabelPosition=bottom;sketch=0;html=1;verticalAlign=top;aspect=fixed;align=center;pointerEvents=1;shape=mxgraph.cisco19.key;fillColor=#bac8d3;strokeColor=#23445d;direction=north;" vertex="1" parent="AN9EAjbtdKbISoLZVyTg-101">
          <mxGeometry x="15" y="63" width="11.65" height="25.89" as="geometry" />
        </mxCell>
        <mxCell id="AN9EAjbtdKbISoLZVyTg-107" style="edgeStyle=orthogonalEdgeStyle;rounded=0;orthogonalLoop=1;jettySize=auto;html=1;exitX=0.5;exitY=0;exitDx=0;exitDy=0;fontColor=#FF0000;endArrow=none;endFill=0;dashed=1;entryX=0.146;entryY=-0.002;entryDx=0;entryDy=0;entryPerimeter=0;" edge="1" parent="1" source="AN9EAjbtdKbISoLZVyTg-102" target="G9khIPw7my-z3GdnAK4o-1">
          <mxGeometry relative="1" as="geometry">
            <mxPoint x="1026" y="770" as="targetPoint" />
            <Array as="points">
              <mxPoint x="889" y="870" />
              <mxPoint x="980" y="870" />
              <mxPoint x="980" y="700" />
              <mxPoint x="1048" y="700" />
            </Array>
          </mxGeometry>
        </mxCell>
        <mxCell id="AN9EAjbtdKbISoLZVyTg-108" value="&lt;font color=&quot;#000000&quot;&gt;1..*&lt;/font&gt;" style="text;html=1;strokeColor=none;fillColor=none;align=center;verticalAlign=middle;whiteSpace=wrap;rounded=0;fontColor=#FF0000;" vertex="1" parent="1">
          <mxGeometry x="1055" y="701.8600000000001" width="36" height="16.06" as="geometry" />
        </mxCell>
        <mxCell id="AN9EAjbtdKbISoLZVyTg-109" value="&lt;font color=&quot;#000000&quot;&gt;1..*&lt;/font&gt;" style="text;html=1;strokeColor=none;fillColor=none;align=center;verticalAlign=middle;whiteSpace=wrap;rounded=0;fontColor=#FF0000;" vertex="1" parent="1">
          <mxGeometry x="895" y="873" width="25.65" height="16.06" as="geometry" />
        </mxCell>
        <mxCell id="AN9EAjbtdKbISoLZVyTg-111" value="" style="group" vertex="1" connectable="0" parent="1">
          <mxGeometry x="1280" y="1000" width="140" height="78" as="geometry" />
        </mxCell>
        <mxCell id="AN9EAjbtdKbISoLZVyTg-112" value="book_format" style="swimlane;fontStyle=0;childLayout=stackLayout;horizontal=1;startSize=26;fillColor=none;horizontalStack=0;resizeParent=1;resizeParentMax=0;resizeLast=0;collapsible=1;marginBottom=0;" vertex="1" parent="AN9EAjbtdKbISoLZVyTg-111">
          <mxGeometry width="140" height="78" as="geometry" />
        </mxCell>
        <mxCell id="AN9EAjbtdKbISoLZVyTg-113" value="     format_id : int" style="text;strokeColor=none;fillColor=none;align=left;verticalAlign=top;spacingLeft=4;spacingRight=4;overflow=hidden;rotatable=0;points=[[0,0.5],[1,0.5]];portConstraint=eastwest;fontColor=#FF0000;" vertex="1" parent="AN9EAjbtdKbISoLZVyTg-112">
          <mxGeometry y="26" width="140" height="26" as="geometry" />
        </mxCell>
        <mxCell id="AN9EAjbtdKbISoLZVyTg-114" value="name : varchar" style="text;strokeColor=none;fillColor=none;align=left;verticalAlign=top;spacingLeft=4;spacingRight=4;overflow=hidden;rotatable=0;points=[[0,0.5],[1,0.5]];portConstraint=eastwest;" vertex="1" parent="AN9EAjbtdKbISoLZVyTg-112">
          <mxGeometry y="52" width="140" height="26" as="geometry" />
        </mxCell>
        <mxCell id="AN9EAjbtdKbISoLZVyTg-115" value="" style="points=[[0,0.5,0],[0.24,0,0],[0.5,0.28,0],[0.995,0.475,0],[0.5,0.72,0],[0.24,1,0]];verticalLabelPosition=bottom;sketch=0;html=1;verticalAlign=top;aspect=fixed;align=center;pointerEvents=1;shape=mxgraph.cisco19.key;fillColor=#e3c800;strokeColor=#B09500;fontColor=#000000;direction=north;" vertex="1" parent="AN9EAjbtdKbISoLZVyTg-111">
          <mxGeometry x="4.350000000000023" y="29.110000000000014" width="11.65" height="25.89" as="geometry" />
        </mxCell>
        <mxCell id="AN9EAjbtdKbISoLZVyTg-121" value="&lt;font color=&quot;#000000&quot;&gt;1..*&lt;/font&gt;" style="text;html=1;strokeColor=none;fillColor=none;align=center;verticalAlign=middle;whiteSpace=wrap;rounded=0;fontColor=#FF0000;" vertex="1" parent="1">
          <mxGeometry x="660" y="728" width="25" height="30" as="geometry" />
        </mxCell>
        <mxCell id="AN9EAjbtdKbISoLZVyTg-122" value="&lt;font color=&quot;#000000&quot;&gt;1..*&lt;/font&gt;" style="text;html=1;strokeColor=none;fillColor=none;align=center;verticalAlign=middle;whiteSpace=wrap;rounded=0;fontColor=#FF0000;" vertex="1" parent="1">
          <mxGeometry x="865" y="1106" width="20" height="30" as="geometry" />
        </mxCell>
        <mxCell id="AN9EAjbtdKbISoLZVyTg-124" value="&lt;font color=&quot;#000000&quot;&gt;1..*&lt;/font&gt;" style="text;html=1;strokeColor=none;fillColor=none;align=center;verticalAlign=middle;whiteSpace=wrap;rounded=0;fontColor=#FF0000;" vertex="1" parent="1">
          <mxGeometry x="658" y="875" width="60" height="30" as="geometry" />
        </mxCell>
        <mxCell id="AN9EAjbtdKbISoLZVyTg-137" value="" style="group" vertex="1" connectable="0" parent="1">
          <mxGeometry x="813" y="1134" width="151" height="100" as="geometry" />
        </mxCell>
        <mxCell id="AN9EAjbtdKbISoLZVyTg-138" value="book_writer" style="swimlane;fontStyle=0;childLayout=stackLayout;horizontal=1;startSize=26;fillColor=none;horizontalStack=0;resizeParent=1;resizeParentMax=0;resizeLast=0;collapsible=1;marginBottom=0;" vertex="1" parent="AN9EAjbtdKbISoLZVyTg-137">
          <mxGeometry width="148" height="100" as="geometry" />
        </mxCell>
        <mxCell id="AN9EAjbtdKbISoLZVyTg-139" value="    writer_id : int" style="text;strokeColor=none;fillColor=none;align=left;verticalAlign=top;spacingLeft=4;spacingRight=4;overflow=hidden;rotatable=0;points=[[0,0.5],[1,0.5]];portConstraint=eastwest;fontColor=#0000FF;" vertex="1" parent="AN9EAjbtdKbISoLZVyTg-137">
          <mxGeometry x="10" y="30" width="140" height="64" as="geometry" />
        </mxCell>
        <mxCell id="AN9EAjbtdKbISoLZVyTg-140" value="" style="points=[[0,0.5,0],[0.24,0,0],[0.5,0.28,0],[0.995,0.475,0],[0.5,0.72,0],[0.24,1,0]];verticalLabelPosition=bottom;sketch=0;html=1;verticalAlign=top;aspect=fixed;align=center;pointerEvents=1;shape=mxgraph.cisco19.key;fillColor=#bac8d3;strokeColor=#23445d;direction=north;" vertex="1" parent="AN9EAjbtdKbISoLZVyTg-137">
          <mxGeometry x="14" y="34" width="11.65" height="25.89" as="geometry" />
        </mxCell>
        <mxCell id="AN9EAjbtdKbISoLZVyTg-141" value="    book_id : int" style="text;strokeColor=none;fillColor=none;align=left;verticalAlign=top;spacingLeft=4;spacingRight=4;overflow=hidden;rotatable=0;points=[[0,0.5],[1,0.5]];portConstraint=eastwest;fontColor=#0000FF;" vertex="1" parent="AN9EAjbtdKbISoLZVyTg-137">
          <mxGeometry x="11" y="60" width="140" height="37" as="geometry" />
        </mxCell>
        <mxCell id="AN9EAjbtdKbISoLZVyTg-142" value="" style="points=[[0,0.5,0],[0.24,0,0],[0.5,0.28,0],[0.995,0.475,0],[0.5,0.72,0],[0.24,1,0]];verticalLabelPosition=bottom;sketch=0;html=1;verticalAlign=top;aspect=fixed;align=center;pointerEvents=1;shape=mxgraph.cisco19.key;fillColor=#bac8d3;strokeColor=#23445d;direction=north;" vertex="1" parent="AN9EAjbtdKbISoLZVyTg-137">
          <mxGeometry x="15" y="63" width="11.65" height="25.89" as="geometry" />
        </mxCell>
        <mxCell id="AN9EAjbtdKbISoLZVyTg-143" style="edgeStyle=orthogonalEdgeStyle;rounded=0;orthogonalLoop=1;jettySize=auto;html=1;exitX=0.5;exitY=0;exitDx=0;exitDy=0;dashed=1;fontColor=#FF0000;endArrow=none;endFill=0;entryX=0.5;entryY=0;entryDx=0;entryDy=0;" edge="1" parent="1" target="AN9EAjbtdKbISoLZVyTg-138">
          <mxGeometry relative="1" as="geometry">
            <mxPoint x="1029" y="741" as="targetPoint" />
            <mxPoint x="704" y="1111" as="sourcePoint" />
            <Array as="points">
              <mxPoint x="704" y="1101" />
              <mxPoint x="887" y="1101" />
            </Array>
          </mxGeometry>
        </mxCell>
        <mxCell id="AN9EAjbtdKbISoLZVyTg-144" style="edgeStyle=orthogonalEdgeStyle;rounded=0;orthogonalLoop=1;jettySize=auto;html=1;dashed=1;fontColor=#FF0000;endArrow=none;endFill=0;entryX=0.157;entryY=1.011;entryDx=0;entryDy=0;entryPerimeter=0;exitX=0.5;exitY=0;exitDx=0;exitDy=0;" edge="1" parent="1" source="AN9EAjbtdKbISoLZVyTg-138" target="G9khIPw7my-z3GdnAK4o-3">
          <mxGeometry relative="1" as="geometry">
            <mxPoint x="1029" y="770" as="targetPoint" />
            <mxPoint x="890" y="1051" as="sourcePoint" />
            <Array as="points">
              <mxPoint x="887" y="1100" />
              <mxPoint x="1050" y="1100" />
            </Array>
          </mxGeometry>
        </mxCell>
        <mxCell id="AN9EAjbtdKbISoLZVyTg-145" value="&lt;font color=&quot;#000000&quot;&gt;1..*&lt;/font&gt;" style="text;html=1;strokeColor=none;fillColor=none;align=center;verticalAlign=middle;whiteSpace=wrap;rounded=0;fontColor=#FF0000;" vertex="1" parent="1">
          <mxGeometry x="680" y="1090" width="20" height="30" as="geometry" />
        </mxCell>
        <mxCell id="AN9EAjbtdKbISoLZVyTg-147" value="&lt;font color=&quot;#000000&quot;&gt;1..*&lt;/font&gt;" style="text;html=1;strokeColor=none;fillColor=none;align=center;verticalAlign=middle;whiteSpace=wrap;rounded=0;fontColor=#FF0000;" vertex="1" parent="1">
          <mxGeometry x="1055" y="1080" width="20" height="30" as="geometry" />
        </mxCell>
        <mxCell id="AN9EAjbtdKbISoLZVyTg-151" style="edgeStyle=orthogonalEdgeStyle;rounded=0;orthogonalLoop=1;jettySize=auto;html=1;exitX=0;exitY=1;exitDx=0;exitDy=0;fontColor=#FF0000;endArrow=none;endFill=0;" edge="1" parent="1">
          <mxGeometry relative="1" as="geometry">
            <mxPoint x="1167.83" y="1048.06" as="sourcePoint" />
            <mxPoint x="1280" y="1046" as="targetPoint" />
            <Array as="points">
              <mxPoint x="1280" y="1048" />
            </Array>
          </mxGeometry>
        </mxCell>
        <mxCell id="AN9EAjbtdKbISoLZVyTg-152" value="&lt;font color=&quot;#000000&quot;&gt;1&lt;/font&gt;" style="text;html=1;strokeColor=none;fillColor=none;align=center;verticalAlign=middle;whiteSpace=wrap;rounded=0;fontColor=#FF0000;" vertex="1" parent="1">
          <mxGeometry x="1255.18" y="1006.94" width="25.65" height="16.06" as="geometry" />
        </mxCell>
        <mxCell id="AN9EAjbtdKbISoLZVyTg-153" value="&lt;font color=&quot;#000000&quot;&gt;*&lt;/font&gt;" style="text;html=1;strokeColor=none;fillColor=none;align=center;verticalAlign=middle;whiteSpace=wrap;rounded=0;fontColor=#FF0000;" vertex="1" parent="1">
          <mxGeometry x="1167.83" y="1032" width="25.65" height="16.06" as="geometry" />
        </mxCell>
        <mxCell id="AN9EAjbtdKbISoLZVyTg-154" value="" style="group" vertex="1" connectable="0" parent="1">
          <mxGeometry x="340" y="202.97000000000003" width="140" height="78" as="geometry" />
        </mxCell>
        <mxCell id="AN9EAjbtdKbISoLZVyTg-155" value="language_books" style="swimlane;fontStyle=0;childLayout=stackLayout;horizontal=1;startSize=26;fillColor=none;horizontalStack=0;resizeParent=1;resizeParentMax=0;resizeLast=0;collapsible=1;marginBottom=0;" vertex="1" parent="AN9EAjbtdKbISoLZVyTg-154">
          <mxGeometry width="140" height="78" as="geometry" />
        </mxCell>
        <mxCell id="AN9EAjbtdKbISoLZVyTg-156" value="     language_id : int" style="text;strokeColor=none;fillColor=none;align=left;verticalAlign=top;spacingLeft=4;spacingRight=4;overflow=hidden;rotatable=0;points=[[0,0.5],[1,0.5]];portConstraint=eastwest;fontColor=#FF0000;" vertex="1" parent="AN9EAjbtdKbISoLZVyTg-155">
          <mxGeometry y="26" width="140" height="26" as="geometry" />
        </mxCell>
        <mxCell id="AN9EAjbtdKbISoLZVyTg-157" value="language : varchar" style="text;strokeColor=none;fillColor=none;align=left;verticalAlign=top;spacingLeft=4;spacingRight=4;overflow=hidden;rotatable=0;points=[[0,0.5],[1,0.5]];portConstraint=eastwest;" vertex="1" parent="AN9EAjbtdKbISoLZVyTg-155">
          <mxGeometry y="52" width="140" height="26" as="geometry" />
        </mxCell>
        <mxCell id="AN9EAjbtdKbISoLZVyTg-158" value="" style="points=[[0,0.5,0],[0.24,0,0],[0.5,0.28,0],[0.995,0.475,0],[0.5,0.72,0],[0.24,1,0]];verticalLabelPosition=bottom;sketch=0;html=1;verticalAlign=top;aspect=fixed;align=center;pointerEvents=1;shape=mxgraph.cisco19.key;fillColor=#e3c800;strokeColor=#B09500;fontColor=#000000;direction=north;" vertex="1" parent="AN9EAjbtdKbISoLZVyTg-154">
          <mxGeometry x="4.350000000000023" y="29.110000000000014" width="11.65" height="25.89" as="geometry" />
        </mxCell>
        <mxCell id="AN9EAjbtdKbISoLZVyTg-164" value="" style="group" vertex="1" connectable="0" parent="1">
          <mxGeometry x="260" y="1111" width="140" height="78" as="geometry" />
        </mxCell>
        <mxCell id="AN9EAjbtdKbISoLZVyTg-159" value="writers_roles" style="swimlane;fontStyle=0;childLayout=stackLayout;horizontal=1;startSize=26;fillColor=none;horizontalStack=0;resizeParent=1;resizeParentMax=0;resizeLast=0;collapsible=1;marginBottom=0;" vertex="1" parent="AN9EAjbtdKbISoLZVyTg-164">
          <mxGeometry width="140" height="78" as="geometry" />
        </mxCell>
        <mxCell id="AN9EAjbtdKbISoLZVyTg-160" value="     writer_role_id : int" style="text;strokeColor=none;fillColor=none;align=left;verticalAlign=top;spacingLeft=4;spacingRight=4;overflow=hidden;rotatable=0;points=[[0,0.5],[1,0.5]];portConstraint=eastwest;fontColor=#FF0000;" vertex="1" parent="AN9EAjbtdKbISoLZVyTg-159">
          <mxGeometry y="26" width="140" height="26" as="geometry" />
        </mxCell>
        <mxCell id="AN9EAjbtdKbISoLZVyTg-161" value="role : varchar" style="text;strokeColor=none;fillColor=none;align=left;verticalAlign=top;spacingLeft=4;spacingRight=4;overflow=hidden;rotatable=0;points=[[0,0.5],[1,0.5]];portConstraint=eastwest;" vertex="1" parent="AN9EAjbtdKbISoLZVyTg-159">
          <mxGeometry y="52" width="140" height="26" as="geometry" />
        </mxCell>
        <mxCell id="AN9EAjbtdKbISoLZVyTg-163" value="" style="points=[[0,0.5,0],[0.24,0,0],[0.5,0.28,0],[0.995,0.475,0],[0.5,0.72,0],[0.24,1,0]];verticalLabelPosition=bottom;sketch=0;html=1;verticalAlign=top;aspect=fixed;align=center;pointerEvents=1;shape=mxgraph.cisco19.key;fillColor=#e3c800;strokeColor=#B09500;fontColor=#000000;direction=north;" vertex="1" parent="AN9EAjbtdKbISoLZVyTg-164">
          <mxGeometry x="5" y="28" width="11.65" height="25.89" as="geometry" />
        </mxCell>
        <mxCell id="AN9EAjbtdKbISoLZVyTg-168" value="" style="group" vertex="1" connectable="0" parent="1">
          <mxGeometry x="461.83" y="1111" width="151" height="100" as="geometry" />
        </mxCell>
        <mxCell id="AN9EAjbtdKbISoLZVyTg-169" value="writer_writer_role" style="swimlane;fontStyle=0;childLayout=stackLayout;horizontal=1;startSize=26;fillColor=none;horizontalStack=0;resizeParent=1;resizeParentMax=0;resizeLast=0;collapsible=1;marginBottom=0;" vertex="1" parent="AN9EAjbtdKbISoLZVyTg-168">
          <mxGeometry width="148" height="100" as="geometry" />
        </mxCell>
        <mxCell id="AN9EAjbtdKbISoLZVyTg-170" value="    writer_id : int" style="text;strokeColor=none;fillColor=none;align=left;verticalAlign=top;spacingLeft=4;spacingRight=4;overflow=hidden;rotatable=0;points=[[0,0.5],[1,0.5]];portConstraint=eastwest;fontColor=#0000FF;" vertex="1" parent="AN9EAjbtdKbISoLZVyTg-168">
          <mxGeometry x="10" y="30" width="140" height="64" as="geometry" />
        </mxCell>
        <mxCell id="AN9EAjbtdKbISoLZVyTg-171" value="" style="points=[[0,0.5,0],[0.24,0,0],[0.5,0.28,0],[0.995,0.475,0],[0.5,0.72,0],[0.24,1,0]];verticalLabelPosition=bottom;sketch=0;html=1;verticalAlign=top;aspect=fixed;align=center;pointerEvents=1;shape=mxgraph.cisco19.key;fillColor=#bac8d3;strokeColor=#23445d;direction=north;" vertex="1" parent="AN9EAjbtdKbISoLZVyTg-168">
          <mxGeometry x="14" y="34" width="11.65" height="25.89" as="geometry" />
        </mxCell>
        <mxCell id="AN9EAjbtdKbISoLZVyTg-172" value="    writer_role : int" style="text;strokeColor=none;fillColor=none;align=left;verticalAlign=top;spacingLeft=4;spacingRight=4;overflow=hidden;rotatable=0;points=[[0,0.5],[1,0.5]];portConstraint=eastwest;fontColor=#0000FF;" vertex="1" parent="AN9EAjbtdKbISoLZVyTg-168">
          <mxGeometry x="11" y="60" width="140" height="37" as="geometry" />
        </mxCell>
        <mxCell id="AN9EAjbtdKbISoLZVyTg-173" value="" style="points=[[0,0.5,0],[0.24,0,0],[0.5,0.28,0],[0.995,0.475,0],[0.5,0.72,0],[0.24,1,0]];verticalLabelPosition=bottom;sketch=0;html=1;verticalAlign=top;aspect=fixed;align=center;pointerEvents=1;shape=mxgraph.cisco19.key;fillColor=#bac8d3;strokeColor=#23445d;direction=north;" vertex="1" parent="AN9EAjbtdKbISoLZVyTg-168">
          <mxGeometry x="15" y="63" width="11.65" height="25.89" as="geometry" />
        </mxCell>
        <mxCell id="AN9EAjbtdKbISoLZVyTg-179" style="edgeStyle=orthogonalEdgeStyle;rounded=0;orthogonalLoop=1;jettySize=auto;html=1;exitX=0.5;exitY=0;exitDx=0;exitDy=0;entryX=0.25;entryY=0;entryDx=0;entryDy=0;dashed=1;fontColor=#FF0000;endArrow=none;endFill=0;" edge="1" parent="1" source="AN9EAjbtdKbISoLZVyTg-169" target="G9khIPw7my-z3GdnAK4o-37">
          <mxGeometry relative="1" as="geometry" />
        </mxCell>
        <mxCell id="AN9EAjbtdKbISoLZVyTg-180" style="edgeStyle=orthogonalEdgeStyle;rounded=0;orthogonalLoop=1;jettySize=auto;html=1;entryX=0.5;entryY=0;entryDx=0;entryDy=0;dashed=1;fontColor=#FF0000;endArrow=none;endFill=0;exitX=0.5;exitY=0;exitDx=0;exitDy=0;" edge="1" parent="1" target="AN9EAjbtdKbISoLZVyTg-169">
          <mxGeometry relative="1" as="geometry">
            <mxPoint x="320" y="1111" as="sourcePoint" />
            <Array as="points">
              <mxPoint x="320" y="1091" />
              <mxPoint x="536" y="1091" />
            </Array>
          </mxGeometry>
        </mxCell>
        <mxCell id="AN9EAjbtdKbISoLZVyTg-181" value="&lt;font color=&quot;#000000&quot;&gt;*&lt;/font&gt;" style="text;html=1;strokeColor=none;fillColor=none;align=center;verticalAlign=middle;whiteSpace=wrap;rounded=0;fontColor=#FF0000;" vertex="1" parent="1">
          <mxGeometry x="640" y="1087.94" width="20" height="30" as="geometry" />
        </mxCell>
        <mxCell id="AN9EAjbtdKbISoLZVyTg-182" value="&lt;font color=&quot;#000000&quot;&gt;*&lt;/font&gt;" style="text;html=1;strokeColor=none;fillColor=none;align=center;verticalAlign=middle;whiteSpace=wrap;rounded=0;fontColor=#FF0000;" vertex="1" parent="1">
          <mxGeometry x="512.83" y="1087.94" width="20" height="32.06" as="geometry" />
        </mxCell>
        <mxCell id="AN9EAjbtdKbISoLZVyTg-183" value="&lt;font color=&quot;#000000&quot;&gt;1..*&lt;/font&gt;" style="text;html=1;strokeColor=none;fillColor=none;align=center;verticalAlign=middle;whiteSpace=wrap;rounded=0;fontColor=#FF0000;" vertex="1" parent="1">
          <mxGeometry x="300" y="1087.94" width="20" height="30" as="geometry" />
        </mxCell>
        <mxCell id="AN9EAjbtdKbISoLZVyTg-29" value="&lt;font style=&quot;font-family: Helvetica; font-size: 12px; font-style: normal; font-variant-ligatures: normal; font-variant-caps: normal; font-weight: 400; letter-spacing: normal; orphans: 2; text-align: left; text-indent: 0px; text-transform: none; widows: 2; word-spacing: 0px; -webkit-text-stroke-width: 0px; background-color: rgb(248, 249, 250); text-decoration-thickness: initial; text-decoration-style: initial; text-decoration-color: initial;&quot; color=&quot;#0000ff&quot;&gt;&lt;span style=&quot;font-family: Helvetica; font-size: 12px; font-style: normal; font-variant-ligatures: normal; font-variant-caps: normal; font-weight: 400; letter-spacing: normal; orphans: 2; text-align: left; text-indent: 0px; text-transform: none; widows: 2; word-spacing: 0px; -webkit-text-stroke-width: 0px; background-color: rgb(248, 249, 250); text-decoration-thickness: initial; text-decoration-style: initial; text-decoration-color: initial; float: none; display: inline !important;&quot;&gt;&amp;nbsp; &amp;nbsp; &amp;nbsp; book_id : int&lt;/span&gt;&lt;br style=&quot;padding: 0px; margin: 0px; font-family: Helvetica; font-size: 12px; font-style: normal; font-variant-ligatures: normal; font-variant-caps: normal; font-weight: 400; letter-spacing: normal; orphans: 2; text-align: left; text-indent: 0px; text-transform: none; widows: 2; word-spacing: 0px; -webkit-text-stroke-width: 0px; background-color: rgb(248, 249, 250); text-decoration-thickness: initial; text-decoration-style: initial; text-decoration-color: initial;&quot;&gt;&lt;/font&gt;" style="text;whiteSpace=wrap;html=1;fontColor=#0000FF;" vertex="1" parent="1">
          <mxGeometry x="1312" y="615" width="140" height="20" as="geometry" />
        </mxCell>
        <mxCell id="AN9EAjbtdKbISoLZVyTg-39" value="" style="group" vertex="1" connectable="0" parent="1">
          <mxGeometry x="1308" y="477" width="142" height="170" as="geometry" />
        </mxCell>
        <mxCell id="AN9EAjbtdKbISoLZVyTg-28" value="&lt;font style=&quot;font-family: Helvetica; font-size: 12px; font-style: normal; font-variant-ligatures: normal; font-variant-caps: normal; font-weight: 400; letter-spacing: normal; orphans: 2; text-align: left; text-indent: 0px; text-transform: none; widows: 2; word-spacing: 0px; -webkit-text-stroke-width: 0px; background-color: rgb(248, 249, 250); text-decoration-thickness: initial; text-decoration-style: initial; text-decoration-color: initial;&quot; color=&quot;#0000ff&quot;&gt;&lt;span style=&quot;font-family: Helvetica; font-size: 12px; font-style: normal; font-variant-ligatures: normal; font-variant-caps: normal; font-weight: 400; letter-spacing: normal; orphans: 2; text-align: left; text-indent: 0px; text-transform: none; widows: 2; word-spacing: 0px; -webkit-text-stroke-width: 0px; background-color: rgb(248, 249, 250); text-decoration-thickness: initial; text-decoration-style: initial; text-decoration-color: initial; float: none; display: inline !important;&quot;&gt;&amp;nbsp; &amp;nbsp; &amp;nbsp; user_id : int&lt;/span&gt;&lt;br style=&quot;padding: 0px; margin: 0px; font-family: Helvetica; font-size: 12px; font-style: normal; font-variant-ligatures: normal; font-variant-caps: normal; font-weight: 400; letter-spacing: normal; orphans: 2; text-align: left; text-indent: 0px; text-transform: none; widows: 2; word-spacing: 0px; -webkit-text-stroke-width: 0px; background-color: rgb(248, 249, 250); text-decoration-thickness: initial; text-decoration-style: initial; text-decoration-color: initial;&quot;&gt;&lt;/font&gt;" style="text;whiteSpace=wrap;html=1;fontColor=#0000FF;" vertex="1" parent="AN9EAjbtdKbISoLZVyTg-39">
          <mxGeometry x="2" y="111" width="140" height="20" as="geometry" />
        </mxCell>
        <mxCell id="AN9EAjbtdKbISoLZVyTg-40" value="" style="group" vertex="1" connectable="0" parent="AN9EAjbtdKbISoLZVyTg-39">
          <mxGeometry width="140" height="170" as="geometry" />
        </mxCell>
        <mxCell id="AN9EAjbtdKbISoLZVyTg-27" value="" style="group" vertex="1" connectable="0" parent="AN9EAjbtdKbISoLZVyTg-40">
          <mxGeometry width="140" height="170" as="geometry" />
        </mxCell>
        <mxCell id="G9khIPw7my-z3GdnAK4o-33" value="comments" style="swimlane;fontStyle=0;childLayout=stackLayout;horizontal=1;startSize=26;fillColor=none;horizontalStack=0;resizeParent=1;resizeParentMax=0;resizeLast=0;collapsible=1;marginBottom=0;" parent="AN9EAjbtdKbISoLZVyTg-27" vertex="1">
          <mxGeometry width="140" height="169.99888888888887" as="geometry" />
        </mxCell>
        <mxCell id="G9khIPw7my-z3GdnAK4o-34" value="      comment_id : int" style="text;strokeColor=none;fillColor=none;align=left;verticalAlign=top;spacingLeft=4;spacingRight=4;overflow=hidden;rotatable=0;points=[[0,0.5],[1,0.5]];portConstraint=eastwest;fontColor=#FF0000;" parent="G9khIPw7my-z3GdnAK4o-33" vertex="1">
          <mxGeometry y="26" width="140" height="34.08888888888889" as="geometry" />
        </mxCell>
        <mxCell id="G9khIPw7my-z3GdnAK4o-35" value="message : text&#xa;notation : int&#xa;writed_at : date" style="text;strokeColor=none;fillColor=none;align=left;verticalAlign=top;spacingLeft=4;spacingRight=4;overflow=hidden;rotatable=0;points=[[0,0.5],[1,0.5]];portConstraint=eastwest;" parent="G9khIPw7my-z3GdnAK4o-33" vertex="1">
          <mxGeometry y="60.08888888888889" width="140" height="109.91" as="geometry" />
        </mxCell>
        <mxCell id="AN9EAjbtdKbISoLZVyTg-26" value="" style="points=[[0,0.5,0],[0.24,0,0],[0.5,0.28,0],[0.995,0.475,0],[0.5,0.72,0],[0.24,1,0]];verticalLabelPosition=bottom;sketch=0;html=1;verticalAlign=top;aspect=fixed;align=center;pointerEvents=1;shape=mxgraph.cisco19.key;fillColor=#e3c800;strokeColor=#B09500;fontColor=#000000;direction=north;" vertex="1" parent="AN9EAjbtdKbISoLZVyTg-27">
          <mxGeometry x="7" y="32.320222222222235" width="11.65" height="25.89" as="geometry" />
        </mxCell>
        <mxCell id="AN9EAjbtdKbISoLZVyTg-31" value="" style="points=[[0,0.5,0],[0.24,0,0],[0.5,0.28,0],[0.995,0.475,0],[0.5,0.72,0],[0.24,1,0]];verticalLabelPosition=bottom;sketch=0;html=1;verticalAlign=top;aspect=fixed;align=center;pointerEvents=1;shape=mxgraph.cisco19.key;fillColor=#bac8d3;strokeColor=#23445d;direction=north;" vertex="1" parent="AN9EAjbtdKbISoLZVyTg-40">
          <mxGeometry x="7.349999999999994" y="111" width="11.65" height="25.89" as="geometry" />
        </mxCell>
        <mxCell id="AN9EAjbtdKbISoLZVyTg-32" value="" style="points=[[0,0.5,0],[0.24,0,0],[0.5,0.28,0],[0.995,0.475,0],[0.5,0.72,0],[0.24,1,0]];verticalLabelPosition=bottom;sketch=0;html=1;verticalAlign=top;aspect=fixed;align=center;pointerEvents=1;shape=mxgraph.cisco19.key;fillColor=#bac8d3;strokeColor=#23445d;direction=north;" vertex="1" parent="AN9EAjbtdKbISoLZVyTg-40">
          <mxGeometry x="7.349999999999994" y="139.11" width="11.65" height="25.89" as="geometry" />
        </mxCell>
        <mxCell id="AN9EAjbtdKbISoLZVyTg-30" style="edgeStyle=orthogonalEdgeStyle;rounded=0;orthogonalLoop=1;jettySize=auto;html=1;exitX=0.5;exitY=1;exitDx=0;exitDy=0;fontColor=#FF0000;" edge="1" parent="AN9EAjbtdKbISoLZVyTg-39" source="AN9EAjbtdKbISoLZVyTg-28" target="AN9EAjbtdKbISoLZVyTg-28">
          <mxGeometry relative="1" as="geometry" />
        </mxCell>
        <mxCell id="AN9EAjbtdKbISoLZVyTg-187" value="" style="group" vertex="1" connectable="0" parent="1">
          <mxGeometry x="1308" y="20" width="140" height="230" as="geometry" />
        </mxCell>
        <mxCell id="AN9EAjbtdKbISoLZVyTg-1" value="messages" style="swimlane;fontStyle=0;childLayout=stackLayout;horizontal=1;startSize=26;fillColor=none;horizontalStack=0;resizeParent=1;resizeParentMax=0;resizeLast=0;collapsible=1;marginBottom=0;" vertex="1" parent="AN9EAjbtdKbISoLZVyTg-187">
          <mxGeometry width="140" height="230" as="geometry" />
        </mxCell>
        <mxCell id="AN9EAjbtdKbISoLZVyTg-2" value="    message_id : int" style="text;strokeColor=none;fillColor=none;align=left;verticalAlign=top;spacingLeft=4;spacingRight=4;overflow=hidden;rotatable=0;points=[[0,0.5],[1,0.5]];portConstraint=eastwest;fontColor=#FF0000;" vertex="1" parent="AN9EAjbtdKbISoLZVyTg-1">
          <mxGeometry y="26" width="140" height="26" as="geometry" />
        </mxCell>
        <mxCell id="AN9EAjbtdKbISoLZVyTg-3" value="message : text&#xa;written_at : date&#xa;resolve_at : date&#xa;last_name : varchar&#xa;first_name : varchar&#xa;number_phone : varchar&#xa;email : varchar" style="text;strokeColor=none;fillColor=none;align=left;verticalAlign=top;spacingLeft=4;spacingRight=4;overflow=hidden;rotatable=0;points=[[0,0.5],[1,0.5]];portConstraint=eastwest;" vertex="1" parent="AN9EAjbtdKbISoLZVyTg-1">
          <mxGeometry y="52" width="140" height="178" as="geometry" />
        </mxCell>
        <mxCell id="AN9EAjbtdKbISoLZVyTg-186" value="" style="points=[[0,0.5,0],[0.24,0,0],[0.5,0.28,0],[0.995,0.475,0],[0.5,0.72,0],[0.24,1,0]];verticalLabelPosition=bottom;sketch=0;html=1;verticalAlign=top;aspect=fixed;align=center;pointerEvents=1;shape=mxgraph.cisco19.key;fillColor=#e3c800;strokeColor=#B09500;fontColor=#000000;direction=north;" vertex="1" parent="AN9EAjbtdKbISoLZVyTg-187">
          <mxGeometry x="3.8299999999999272" y="30" width="11.65" height="25.89" as="geometry" />
        </mxCell>
        <mxCell id="AN9EAjbtdKbISoLZVyTg-192" value="" style="group" vertex="1" connectable="0" parent="1">
          <mxGeometry x="1311" y="180" width="94.34999999999991" height="29.779999999999973" as="geometry" />
        </mxCell>
        <mxCell id="AN9EAjbtdKbISoLZVyTg-188" value="&lt;font style=&quot;font-family: Helvetica; font-size: 12px; font-style: normal; font-variant-ligatures: normal; font-variant-caps: normal; font-weight: 400; letter-spacing: normal; orphans: 2; text-align: left; text-indent: 0px; text-transform: none; widows: 2; word-spacing: 0px; -webkit-text-stroke-width: 0px; background-color: rgb(248, 249, 250); text-decoration-thickness: initial; text-decoration-style: initial; text-decoration-color: initial;&quot; color=&quot;#0000ff&quot;&gt;&lt;span style=&quot;font-family: Helvetica; font-size: 12px; font-style: normal; font-variant-ligatures: normal; font-variant-caps: normal; font-weight: 400; letter-spacing: normal; orphans: 2; text-align: left; text-indent: 0px; text-transform: none; widows: 2; word-spacing: 0px; -webkit-text-stroke-width: 0px; background-color: rgb(248, 249, 250); text-decoration-thickness: initial; text-decoration-style: initial; text-decoration-color: initial; float: none; display: inline !important;&quot;&gt;&amp;nbsp; &amp;nbsp; &amp;nbsp; user_id : int&lt;/span&gt;&lt;br style=&quot;padding: 0px; margin: 0px; font-family: Helvetica; font-size: 12px; font-style: normal; font-variant-ligatures: normal; font-variant-caps: normal; font-weight: 400; letter-spacing: normal; orphans: 2; text-align: left; text-indent: 0px; text-transform: none; widows: 2; word-spacing: 0px; -webkit-text-stroke-width: 0px; background-color: rgb(248, 249, 250); text-decoration-thickness: initial; text-decoration-style: initial; text-decoration-color: initial;&quot;&gt;&lt;/font&gt;" style="text;whiteSpace=wrap;html=1;fontColor=#0000FF;" vertex="1" parent="AN9EAjbtdKbISoLZVyTg-192">
          <mxGeometry width="94.35" height="20" as="geometry" />
        </mxCell>
        <mxCell id="AN9EAjbtdKbISoLZVyTg-189" value="" style="points=[[0,0.5,0],[0.24,0,0],[0.5,0.28,0],[0.995,0.475,0],[0.5,0.72,0],[0.24,1,0]];verticalLabelPosition=bottom;sketch=0;html=1;verticalAlign=top;aspect=fixed;align=center;pointerEvents=1;shape=mxgraph.cisco19.key;fillColor=#bac8d3;strokeColor=#23445d;direction=north;" vertex="1" parent="AN9EAjbtdKbISoLZVyTg-192">
          <mxGeometry x="5" y="3.8899999999999864" width="11.65" height="25.89" as="geometry" />
        </mxCell>
        <mxCell id="AN9EAjbtdKbISoLZVyTg-193" value="" style="group" vertex="1" connectable="0" parent="1">
          <mxGeometry x="1313" y="209.78" width="94.34999999999991" height="29.78" as="geometry" />
        </mxCell>
        <mxCell id="AN9EAjbtdKbISoLZVyTg-190" value="&lt;font style=&quot;font-family: Helvetica; font-size: 12px; font-style: normal; font-variant-ligatures: normal; font-variant-caps: normal; font-weight: 400; letter-spacing: normal; orphans: 2; text-align: left; text-indent: 0px; text-transform: none; widows: 2; word-spacing: 0px; -webkit-text-stroke-width: 0px; background-color: rgb(248, 249, 250); text-decoration-thickness: initial; text-decoration-style: initial; text-decoration-color: initial;&quot; color=&quot;#0000ff&quot;&gt;&lt;span style=&quot;font-family: Helvetica; font-size: 12px; font-style: normal; font-variant-ligatures: normal; font-variant-caps: normal; font-weight: 400; letter-spacing: normal; orphans: 2; text-align: left; text-indent: 0px; text-transform: none; widows: 2; word-spacing: 0px; -webkit-text-stroke-width: 0px; background-color: rgb(248, 249, 250); text-decoration-thickness: initial; text-decoration-style: initial; text-decoration-color: initial; float: none; display: inline !important;&quot;&gt;&amp;nbsp; &amp;nbsp; &amp;nbsp; status_id : int&lt;/span&gt;&lt;br style=&quot;padding: 0px; margin: 0px; font-family: Helvetica; font-size: 12px; font-style: normal; font-variant-ligatures: normal; font-variant-caps: normal; font-weight: 400; letter-spacing: normal; orphans: 2; text-align: left; text-indent: 0px; text-transform: none; widows: 2; word-spacing: 0px; -webkit-text-stroke-width: 0px; background-color: rgb(248, 249, 250); text-decoration-thickness: initial; text-decoration-style: initial; text-decoration-color: initial;&quot;&gt;&lt;/font&gt;" style="text;whiteSpace=wrap;html=1;fontColor=#0000FF;" vertex="1" parent="AN9EAjbtdKbISoLZVyTg-193">
          <mxGeometry width="94.35" height="20" as="geometry" />
        </mxCell>
        <mxCell id="AN9EAjbtdKbISoLZVyTg-191" value="" style="points=[[0,0.5,0],[0.24,0,0],[0.5,0.28,0],[0.995,0.475,0],[0.5,0.72,0],[0.24,1,0]];verticalLabelPosition=bottom;sketch=0;html=1;verticalAlign=top;aspect=fixed;align=center;pointerEvents=1;shape=mxgraph.cisco19.key;fillColor=#bac8d3;strokeColor=#23445d;direction=north;" vertex="1" parent="AN9EAjbtdKbISoLZVyTg-193">
          <mxGeometry x="5" y="3.8899999999999864" width="11.65" height="25.89" as="geometry" />
        </mxCell>
        <mxCell id="AN9EAjbtdKbISoLZVyTg-196" style="edgeStyle=orthogonalEdgeStyle;rounded=0;orthogonalLoop=1;jettySize=auto;html=1;exitX=0;exitY=0.5;exitDx=0;exitDy=0;fontColor=#FF0000;endArrow=none;endFill=0;" edge="1" parent="1">
          <mxGeometry relative="1" as="geometry">
            <mxPoint x="1309" y="190" as="sourcePoint" />
            <mxPoint x="1230" y="441" as="targetPoint" />
            <Array as="points">
              <mxPoint x="1268" y="190" />
              <mxPoint x="1268" y="441" />
            </Array>
          </mxGeometry>
        </mxCell>
        <mxCell id="AN9EAjbtdKbISoLZVyTg-197" value="&lt;font color=&quot;#000000&quot;&gt;1&lt;/font&gt;" style="text;html=1;strokeColor=none;fillColor=none;align=center;verticalAlign=middle;whiteSpace=wrap;rounded=0;fontColor=#FF0000;" vertex="1" parent="1">
          <mxGeometry x="1233.65" y="435.89" width="32" height="30" as="geometry" />
        </mxCell>
        <mxCell id="AN9EAjbtdKbISoLZVyTg-198" value="&lt;font color=&quot;#000000&quot;&gt;*&lt;/font&gt;" style="text;html=1;strokeColor=none;fillColor=none;align=center;verticalAlign=middle;whiteSpace=wrap;rounded=0;fontColor=#FF0000;" vertex="1" parent="1">
          <mxGeometry x="1278" y="170.00000000000006" width="25.65" height="16.06" as="geometry" />
        </mxCell>
        <mxCell id="AN9EAjbtdKbISoLZVyTg-203" style="edgeStyle=orthogonalEdgeStyle;rounded=0;orthogonalLoop=1;jettySize=auto;html=1;exitX=0;exitY=0.5;exitDx=0;exitDy=0;entryX=1.011;entryY=0.857;entryDx=0;entryDy=0;entryPerimeter=0;fontColor=#FF0000;endArrow=none;endFill=0;" edge="1" parent="1" source="AN9EAjbtdKbISoLZVyTg-200" target="AN9EAjbtdKbISoLZVyTg-3">
          <mxGeometry relative="1" as="geometry" />
        </mxCell>
        <mxCell id="AN9EAjbtdKbISoLZVyTg-205" value="&lt;font color=&quot;#000000&quot;&gt;*&lt;/font&gt;" style="text;html=1;strokeColor=none;fillColor=none;align=center;verticalAlign=middle;whiteSpace=wrap;rounded=0;fontColor=#FF0000;" vertex="1" parent="1">
          <mxGeometry x="1448" y="209.7800000000001" width="25.65" height="16.06" as="geometry" />
        </mxCell>
        <mxCell id="AN9EAjbtdKbISoLZVyTg-221" value="" style="group" vertex="1" connectable="0" parent="1">
          <mxGeometry x="330" y="302" width="140" height="100" as="geometry" />
        </mxCell>
        <mxCell id="AN9EAjbtdKbISoLZVyTg-222" value="discounts" style="swimlane;fontStyle=0;childLayout=stackLayout;horizontal=1;startSize=26;fillColor=none;horizontalStack=0;resizeParent=1;resizeParentMax=0;resizeLast=0;collapsible=1;marginBottom=0;" vertex="1" parent="AN9EAjbtdKbISoLZVyTg-221">
          <mxGeometry width="140" height="100" as="geometry" />
        </mxCell>
        <mxCell id="AN9EAjbtdKbISoLZVyTg-223" value="     discount_id : int" style="text;strokeColor=none;fillColor=none;align=left;verticalAlign=top;spacingLeft=4;spacingRight=4;overflow=hidden;rotatable=0;points=[[0,0.5],[1,0.5]];portConstraint=eastwest;fontColor=#FF0000;" vertex="1" parent="AN9EAjbtdKbISoLZVyTg-222">
          <mxGeometry y="26" width="140" height="26" as="geometry" />
        </mxCell>
        <mxCell id="AN9EAjbtdKbISoLZVyTg-224" value="name : varchar&#xa;number_sale : int&#xa;logo : varchar" style="text;strokeColor=none;fillColor=none;align=left;verticalAlign=top;spacingLeft=4;spacingRight=4;overflow=hidden;rotatable=0;points=[[0,0.5],[1,0.5]];portConstraint=eastwest;" vertex="1" parent="AN9EAjbtdKbISoLZVyTg-222">
          <mxGeometry y="52" width="140" height="48" as="geometry" />
        </mxCell>
        <mxCell id="AN9EAjbtdKbISoLZVyTg-225" value="" style="points=[[0,0.5,0],[0.24,0,0],[0.5,0.28,0],[0.995,0.475,0],[0.5,0.72,0],[0.24,1,0]];verticalLabelPosition=bottom;sketch=0;html=1;verticalAlign=top;aspect=fixed;align=center;pointerEvents=1;shape=mxgraph.cisco19.key;fillColor=#e3c800;strokeColor=#B09500;fontColor=#000000;direction=north;" vertex="1" parent="AN9EAjbtdKbISoLZVyTg-221">
          <mxGeometry x="4.350000000000023" y="29.110000000000014" width="11.65" height="25.89" as="geometry" />
        </mxCell>
        <mxCell id="AN9EAjbtdKbISoLZVyTg-231" style="edgeStyle=orthogonalEdgeStyle;rounded=0;orthogonalLoop=1;jettySize=auto;html=1;exitX=0.75;exitY=0;exitDx=0;exitDy=0;entryX=0.5;entryY=0;entryDx=0;entryDy=0;fontColor=#FF0000;endArrow=none;endFill=0;dashed=1;" edge="1" parent="1" source="G9khIPw7my-z3GdnAK4o-1" target="AN9EAjbtdKbISoLZVyTg-216">
          <mxGeometry relative="1" as="geometry">
            <Array as="points">
              <mxPoint x="1133" y="650" />
              <mxPoint x="970" y="650" />
              <mxPoint x="970" y="491" />
              <mxPoint x="860" y="491" />
            </Array>
          </mxGeometry>
        </mxCell>
        <mxCell id="AN9EAjbtdKbISoLZVyTg-232" style="edgeStyle=orthogonalEdgeStyle;rounded=0;orthogonalLoop=1;jettySize=auto;html=1;dashed=1;fontColor=#FF0000;endArrow=none;endFill=0;" edge="1" parent="1" source="G9khIPw7my-z3GdnAK4o-13">
          <mxGeometry relative="1" as="geometry">
            <mxPoint x="860" y="510" as="targetPoint" />
            <Array as="points">
              <mxPoint x="860" y="450" />
              <mxPoint x="860" y="450" />
            </Array>
          </mxGeometry>
        </mxCell>
        <mxCell id="AN9EAjbtdKbISoLZVyTg-233" value="&lt;font color=&quot;#000000&quot;&gt;*&lt;/font&gt;" style="text;html=1;strokeColor=none;fillColor=none;align=center;verticalAlign=middle;whiteSpace=wrap;rounded=0;fontColor=#FF0000;" vertex="1" parent="1">
          <mxGeometry x="858.25" y="433" width="29.5" height="18" as="geometry" />
        </mxCell>
        <mxCell id="AN9EAjbtdKbISoLZVyTg-234" value="&lt;font color=&quot;#000000&quot;&gt;1..*&lt;/font&gt;" style="text;html=1;strokeColor=none;fillColor=none;align=center;verticalAlign=middle;whiteSpace=wrap;rounded=0;fontColor=#FF0000;" vertex="1" parent="1">
          <mxGeometry x="1138.33" y="698.92" width="29.5" height="18" as="geometry" />
        </mxCell>
        <mxCell id="AN9EAjbtdKbISoLZVyTg-204" value="&lt;font color=&quot;#000000&quot;&gt;1&lt;/font&gt;" style="text;html=1;strokeColor=none;fillColor=none;align=center;verticalAlign=middle;whiteSpace=wrap;rounded=0;fontColor=#FF0000;" vertex="1" parent="1">
          <mxGeometry x="1480" y="233.94000000000005" width="25.65" height="16.06" as="geometry" />
        </mxCell>
        <mxCell id="AN9EAjbtdKbISoLZVyTg-246" value="" style="group" vertex="1" connectable="0" parent="1">
          <mxGeometry x="1500" y="186.06" width="160" height="78" as="geometry" />
        </mxCell>
        <mxCell id="AN9EAjbtdKbISoLZVyTg-199" value="messages_status" style="swimlane;fontStyle=0;childLayout=stackLayout;horizontal=1;startSize=26;fillColor=none;horizontalStack=0;resizeParent=1;resizeParentMax=0;resizeLast=0;collapsible=1;marginBottom=0;" vertex="1" parent="AN9EAjbtdKbISoLZVyTg-246">
          <mxGeometry width="160" height="78" as="geometry" />
        </mxCell>
        <mxCell id="AN9EAjbtdKbISoLZVyTg-200" value="      message_status_id : int" style="text;strokeColor=none;fillColor=none;align=left;verticalAlign=top;spacingLeft=4;spacingRight=4;overflow=hidden;rotatable=0;points=[[0,0.5],[1,0.5]];portConstraint=eastwest;fontColor=#FF0000;" vertex="1" parent="AN9EAjbtdKbISoLZVyTg-199">
          <mxGeometry y="26" width="160" height="26" as="geometry" />
        </mxCell>
        <mxCell id="AN9EAjbtdKbISoLZVyTg-201" value="status : varchar" style="text;strokeColor=none;fillColor=none;align=left;verticalAlign=top;spacingLeft=4;spacingRight=4;overflow=hidden;rotatable=0;points=[[0,0.5],[1,0.5]];portConstraint=eastwest;" vertex="1" parent="AN9EAjbtdKbISoLZVyTg-199">
          <mxGeometry y="52" width="160" height="26" as="geometry" />
        </mxCell>
        <mxCell id="AN9EAjbtdKbISoLZVyTg-206" value="" style="points=[[0,0.5,0],[0.24,0,0],[0.5,0.28,0],[0.995,0.475,0],[0.5,0.72,0],[0.24,1,0]];verticalLabelPosition=bottom;sketch=0;html=1;verticalAlign=top;aspect=fixed;align=center;pointerEvents=1;shape=mxgraph.cisco19.key;fillColor=#e3c800;strokeColor=#B09500;fontColor=#000000;direction=north;" vertex="1" parent="AN9EAjbtdKbISoLZVyTg-246">
          <mxGeometry x="5.650000000000091" y="27.99000000000001" width="11.65" height="25.89" as="geometry" />
        </mxCell>
        <mxCell id="AN9EAjbtdKbISoLZVyTg-247" value="" style="group" vertex="1" connectable="0" parent="1">
          <mxGeometry x="550" y="290" width="160" height="78" as="geometry" />
        </mxCell>
        <mxCell id="AN9EAjbtdKbISoLZVyTg-248" value="orders_status" style="swimlane;fontStyle=0;childLayout=stackLayout;horizontal=1;startSize=26;fillColor=none;horizontalStack=0;resizeParent=1;resizeParentMax=0;resizeLast=0;collapsible=1;marginBottom=0;" vertex="1" parent="AN9EAjbtdKbISoLZVyTg-247">
          <mxGeometry width="160" height="78" as="geometry" />
        </mxCell>
        <mxCell id="AN9EAjbtdKbISoLZVyTg-249" value="      order_status_id : int" style="text;strokeColor=none;fillColor=none;align=left;verticalAlign=top;spacingLeft=4;spacingRight=4;overflow=hidden;rotatable=0;points=[[0,0.5],[1,0.5]];portConstraint=eastwest;fontColor=#FF0000;" vertex="1" parent="AN9EAjbtdKbISoLZVyTg-248">
          <mxGeometry y="26" width="160" height="26" as="geometry" />
        </mxCell>
        <mxCell id="AN9EAjbtdKbISoLZVyTg-250" value="status : varchar" style="text;strokeColor=none;fillColor=none;align=left;verticalAlign=top;spacingLeft=4;spacingRight=4;overflow=hidden;rotatable=0;points=[[0,0.5],[1,0.5]];portConstraint=eastwest;" vertex="1" parent="AN9EAjbtdKbISoLZVyTg-248">
          <mxGeometry y="52" width="160" height="26" as="geometry" />
        </mxCell>
        <mxCell id="AN9EAjbtdKbISoLZVyTg-251" value="" style="points=[[0,0.5,0],[0.24,0,0],[0.5,0.28,0],[0.995,0.475,0],[0.5,0.72,0],[0.24,1,0]];verticalLabelPosition=bottom;sketch=0;html=1;verticalAlign=top;aspect=fixed;align=center;pointerEvents=1;shape=mxgraph.cisco19.key;fillColor=#e3c800;strokeColor=#B09500;fontColor=#000000;direction=north;" vertex="1" parent="AN9EAjbtdKbISoLZVyTg-247">
          <mxGeometry x="5.650000000000091" y="27.99000000000001" width="11.65" height="25.89" as="geometry" />
        </mxCell>
        <mxCell id="AN9EAjbtdKbISoLZVyTg-255" style="edgeStyle=orthogonalEdgeStyle;rounded=0;orthogonalLoop=1;jettySize=auto;html=1;exitX=1;exitY=0.5;exitDx=0;exitDy=0;entryX=0;entryY=1;entryDx=0;entryDy=0;fontColor=#FF0000;endArrow=none;endFill=0;" edge="1" parent="1" source="AN9EAjbtdKbISoLZVyTg-249" target="AN9EAjbtdKbISoLZVyTg-252">
          <mxGeometry relative="1" as="geometry">
            <Array as="points">
              <mxPoint x="750" y="329" />
              <mxPoint x="750" y="388" />
            </Array>
          </mxGeometry>
        </mxCell>
        <mxCell id="AN9EAjbtdKbISoLZVyTg-256" value="&lt;font color=&quot;#000000&quot;&gt;1&lt;/font&gt;" style="text;html=1;strokeColor=none;fillColor=none;align=center;verticalAlign=middle;whiteSpace=wrap;rounded=0;fontColor=#FF0000;" vertex="1" parent="1">
          <mxGeometry x="705" y="310" width="22" height="18" as="geometry" />
        </mxCell>
        <mxCell id="AN9EAjbtdKbISoLZVyTg-257" value="&lt;font color=&quot;#000000&quot;&gt;*&lt;/font&gt;" style="text;html=1;strokeColor=none;fillColor=none;align=center;verticalAlign=middle;whiteSpace=wrap;rounded=0;fontColor=#FF0000;" vertex="1" parent="1">
          <mxGeometry x="760" y="368" width="29.5" height="18" as="geometry" />
        </mxCell>
        <mxCell id="AN9EAjbtdKbISoLZVyTg-258" value="&lt;font color=&quot;#000000&quot;&gt;*&lt;/font&gt;" style="text;html=1;strokeColor=none;fillColor=none;align=center;verticalAlign=middle;whiteSpace=wrap;rounded=0;fontColor=#FF0000;" vertex="1" parent="1">
          <mxGeometry x="830" y="493" width="29.5" height="18" as="geometry" />
        </mxCell>
        <mxCell id="AN9EAjbtdKbISoLZVyTg-259" value="&lt;font color=&quot;#000000&quot;&gt;1&lt;/font&gt;" style="text;html=1;strokeColor=none;fillColor=none;align=center;verticalAlign=middle;whiteSpace=wrap;rounded=0;fontColor=#FF0000;" vertex="1" parent="1">
          <mxGeometry x="1048" y="297" width="18" height="19" as="geometry" />
        </mxCell>
        <mxCell id="AN9EAjbtdKbISoLZVyTg-260" value="" style="group" vertex="1" connectable="0" parent="1">
          <mxGeometry x="790" y="250" width="160" height="180" as="geometry" />
        </mxCell>
        <mxCell id="AN9EAjbtdKbISoLZVyTg-230" value="" style="group" vertex="1" connectable="0" parent="AN9EAjbtdKbISoLZVyTg-260">
          <mxGeometry width="160" height="180" as="geometry" />
        </mxCell>
        <mxCell id="G9khIPw7my-z3GdnAK4o-13" value="orders" style="swimlane;fontStyle=0;childLayout=stackLayout;horizontal=1;startSize=26;fillColor=none;horizontalStack=0;resizeParent=1;resizeParentMax=0;resizeLast=0;collapsible=1;marginBottom=0;" parent="AN9EAjbtdKbISoLZVyTg-230" vertex="1">
          <mxGeometry width="160" height="180" as="geometry" />
        </mxCell>
        <mxCell id="G9khIPw7my-z3GdnAK4o-14" value="      order_id : int" style="text;strokeColor=none;fillColor=none;align=left;verticalAlign=top;spacingLeft=4;spacingRight=4;overflow=hidden;rotatable=0;points=[[0,0.5],[1,0.5]];portConstraint=eastwest;fontColor=#FF0000;" parent="G9khIPw7my-z3GdnAK4o-13" vertex="1">
          <mxGeometry y="26" width="160" height="26" as="geometry" />
        </mxCell>
        <mxCell id="G9khIPw7my-z3GdnAK4o-15" value="created_at : datetime&#xa;expedition_at : date&#xa;delivery_at : date&#xa;total_price : decimal" style="text;strokeColor=none;fillColor=none;align=left;verticalAlign=top;spacingLeft=4;spacingRight=4;overflow=hidden;rotatable=0;points=[[0,0.5],[1,0.5]];portConstraint=eastwest;" parent="G9khIPw7my-z3GdnAK4o-13" vertex="1">
          <mxGeometry y="52" width="160" height="128" as="geometry" />
        </mxCell>
        <mxCell id="AN9EAjbtdKbISoLZVyTg-226" value="" style="points=[[0,0.5,0],[0.24,0,0],[0.5,0.28,0],[0.995,0.475,0],[0.5,0.72,0],[0.24,1,0]];verticalLabelPosition=bottom;sketch=0;html=1;verticalAlign=top;aspect=fixed;align=center;pointerEvents=1;shape=mxgraph.cisco19.key;fillColor=#e3c800;strokeColor=#B09500;fontColor=#000000;direction=north;" vertex="1" parent="AN9EAjbtdKbISoLZVyTg-230">
          <mxGeometry x="7.257142857142883" y="29.220000000000027" width="11.65" height="25.89" as="geometry" />
        </mxCell>
        <mxCell id="AN9EAjbtdKbISoLZVyTg-254" value="" style="group" vertex="1" connectable="0" parent="AN9EAjbtdKbISoLZVyTg-260">
          <mxGeometry y="118" width="160" height="25.889999999999986" as="geometry" />
        </mxCell>
        <mxCell id="AN9EAjbtdKbISoLZVyTg-252" value="&lt;font style=&quot;font-family: Helvetica; font-size: 12px; font-style: normal; font-variant-ligatures: normal; font-variant-caps: normal; font-weight: 400; letter-spacing: normal; orphans: 2; text-align: left; text-indent: 0px; text-transform: none; widows: 2; word-spacing: 0px; -webkit-text-stroke-width: 0px; background-color: rgb(248, 249, 250); text-decoration-thickness: initial; text-decoration-style: initial; text-decoration-color: initial;&quot; color=&quot;#0000ff&quot;&gt;&lt;span style=&quot;font-family: Helvetica; font-size: 12px; font-style: normal; font-variant-ligatures: normal; font-variant-caps: normal; font-weight: 400; letter-spacing: normal; orphans: 2; text-align: left; text-indent: 0px; text-transform: none; widows: 2; word-spacing: 0px; -webkit-text-stroke-width: 0px; background-color: rgb(248, 249, 250); text-decoration-thickness: initial; text-decoration-style: initial; text-decoration-color: initial; float: none; display: inline !important;&quot;&gt;&amp;nbsp; &amp;nbsp; &amp;nbsp; order_status_id : int&lt;/span&gt;&lt;br style=&quot;padding: 0px; margin: 0px; font-family: Helvetica; font-size: 12px; font-style: normal; font-variant-ligatures: normal; font-variant-caps: normal; font-weight: 400; letter-spacing: normal; orphans: 2; text-align: left; text-indent: 0px; text-transform: none; widows: 2; word-spacing: 0px; -webkit-text-stroke-width: 0px; background-color: rgb(248, 249, 250); text-decoration-thickness: initial; text-decoration-style: initial; text-decoration-color: initial;&quot;&gt;&lt;/font&gt;" style="text;whiteSpace=wrap;html=1;fontColor=#0000FF;" vertex="1" parent="AN9EAjbtdKbISoLZVyTg-254">
          <mxGeometry width="160" height="20" as="geometry" />
        </mxCell>
        <mxCell id="AN9EAjbtdKbISoLZVyTg-253" value="" style="points=[[0,0.5,0],[0.24,0,0],[0.5,0.28,0],[0.995,0.475,0],[0.5,0.72,0],[0.24,1,0]];verticalLabelPosition=bottom;sketch=0;html=1;verticalAlign=top;aspect=fixed;align=center;pointerEvents=1;shape=mxgraph.cisco19.key;fillColor=#bac8d3;strokeColor=#23445d;direction=north;" vertex="1" parent="AN9EAjbtdKbISoLZVyTg-254">
          <mxGeometry x="9.142857142857142" width="11.65" height="25.89" as="geometry" />
        </mxCell>
        <mxCell id="AN9EAjbtdKbISoLZVyTg-261" value="" style="group" vertex="1" connectable="0" parent="1">
          <mxGeometry x="789.5" y="120" width="170.5" height="110" as="geometry" />
        </mxCell>
        <mxCell id="AN9EAjbtdKbISoLZVyTg-262" value="shipping_methods" style="swimlane;fontStyle=0;childLayout=stackLayout;horizontal=1;startSize=26;fillColor=none;horizontalStack=0;resizeParent=1;resizeParentMax=0;resizeLast=0;collapsible=1;marginBottom=0;" vertex="1" parent="AN9EAjbtdKbISoLZVyTg-261">
          <mxGeometry width="170.5" height="110" as="geometry" />
        </mxCell>
        <mxCell id="AN9EAjbtdKbISoLZVyTg-263" value="      shipping_methods_id : int" style="text;strokeColor=none;fillColor=none;align=left;verticalAlign=top;spacingLeft=4;spacingRight=4;overflow=hidden;rotatable=0;points=[[0,0.5],[1,0.5]];portConstraint=eastwest;fontColor=#FF0000;" vertex="1" parent="AN9EAjbtdKbISoLZVyTg-262">
          <mxGeometry y="26" width="170.5" height="26" as="geometry" />
        </mxCell>
        <mxCell id="AN9EAjbtdKbISoLZVyTg-264" value="shipping_method : varchar&#xa;price : decimal&#xa;description : text" style="text;strokeColor=none;fillColor=none;align=left;verticalAlign=top;spacingLeft=4;spacingRight=4;overflow=hidden;rotatable=0;points=[[0,0.5],[1,0.5]];portConstraint=eastwest;" vertex="1" parent="AN9EAjbtdKbISoLZVyTg-262">
          <mxGeometry y="52" width="170.5" height="58" as="geometry" />
        </mxCell>
        <mxCell id="AN9EAjbtdKbISoLZVyTg-265" value="" style="points=[[0,0.5,0],[0.24,0,0],[0.5,0.28,0],[0.995,0.475,0],[0.5,0.72,0],[0.24,1,0]];verticalLabelPosition=bottom;sketch=0;html=1;verticalAlign=top;aspect=fixed;align=center;pointerEvents=1;shape=mxgraph.cisco19.key;fillColor=#e3c800;strokeColor=#B09500;fontColor=#000000;direction=north;" vertex="1" parent="AN9EAjbtdKbISoLZVyTg-261">
          <mxGeometry x="6.0207812500000975" y="27.99000000000001" width="11.65" height="25.89" as="geometry" />
        </mxCell>
        <mxCell id="AN9EAjbtdKbISoLZVyTg-266" value="" style="group" vertex="1" connectable="0" parent="1">
          <mxGeometry x="790" y="400" width="160" height="25.89" as="geometry" />
        </mxCell>
        <mxCell id="AN9EAjbtdKbISoLZVyTg-267" value="&lt;font style=&quot;font-family: Helvetica; font-size: 12px; font-style: normal; font-variant-ligatures: normal; font-variant-caps: normal; font-weight: 400; letter-spacing: normal; orphans: 2; text-align: left; text-indent: 0px; text-transform: none; widows: 2; word-spacing: 0px; -webkit-text-stroke-width: 0px; background-color: rgb(248, 249, 250); text-decoration-thickness: initial; text-decoration-style: initial; text-decoration-color: initial;&quot; color=&quot;#0000ff&quot;&gt;&lt;span style=&quot;font-family: Helvetica; font-size: 12px; font-style: normal; font-variant-ligatures: normal; font-variant-caps: normal; font-weight: 400; letter-spacing: normal; orphans: 2; text-align: left; text-indent: 0px; text-transform: none; widows: 2; word-spacing: 0px; -webkit-text-stroke-width: 0px; background-color: rgb(248, 249, 250); text-decoration-thickness: initial; text-decoration-style: initial; text-decoration-color: initial; float: none; display: inline !important;&quot;&gt;&amp;nbsp; &amp;nbsp; &amp;nbsp; shipping_method_id : int&lt;/span&gt;&lt;br style=&quot;padding: 0px; margin: 0px; font-family: Helvetica; font-size: 12px; font-style: normal; font-variant-ligatures: normal; font-variant-caps: normal; font-weight: 400; letter-spacing: normal; orphans: 2; text-align: left; text-indent: 0px; text-transform: none; widows: 2; word-spacing: 0px; -webkit-text-stroke-width: 0px; background-color: rgb(248, 249, 250); text-decoration-thickness: initial; text-decoration-style: initial; text-decoration-color: initial;&quot;&gt;&lt;/font&gt;" style="text;whiteSpace=wrap;html=1;fontColor=#0000FF;" vertex="1" parent="AN9EAjbtdKbISoLZVyTg-266">
          <mxGeometry width="160" height="20.000000000000007" as="geometry" />
        </mxCell>
        <mxCell id="AN9EAjbtdKbISoLZVyTg-268" value="" style="points=[[0,0.5,0],[0.24,0,0],[0.5,0.28,0],[0.995,0.475,0],[0.5,0.72,0],[0.24,1,0]];verticalLabelPosition=bottom;sketch=0;html=1;verticalAlign=top;aspect=fixed;align=center;pointerEvents=1;shape=mxgraph.cisco19.key;fillColor=#bac8d3;strokeColor=#23445d;direction=north;" vertex="1" parent="AN9EAjbtdKbISoLZVyTg-266">
          <mxGeometry x="9.142857142857142" width="11.650000000000006" height="25.89000000000001" as="geometry" />
        </mxCell>
        <mxCell id="AN9EAjbtdKbISoLZVyTg-269" style="edgeStyle=orthogonalEdgeStyle;rounded=0;orthogonalLoop=1;jettySize=auto;html=1;exitX=1;exitY=0.75;exitDx=0;exitDy=0;entryX=1;entryY=0.5;entryDx=0;entryDy=0;fontColor=#FF0000;endArrow=none;endFill=0;" edge="1" parent="1" source="AN9EAjbtdKbISoLZVyTg-267" target="AN9EAjbtdKbISoLZVyTg-263">
          <mxGeometry relative="1" as="geometry" />
        </mxCell>
        <mxCell id="AN9EAjbtdKbISoLZVyTg-270" value="&lt;font color=&quot;#000000&quot;&gt;1&lt;/font&gt;" style="text;html=1;strokeColor=none;fillColor=none;align=center;verticalAlign=middle;whiteSpace=wrap;rounded=0;fontColor=#FF0000;" vertex="1" parent="1">
          <mxGeometry x="960" y="140" width="22" height="18" as="geometry" />
        </mxCell>
        <mxCell id="AN9EAjbtdKbISoLZVyTg-271" value="&lt;font color=&quot;#000000&quot;&gt;*&lt;/font&gt;" style="text;html=1;strokeColor=none;fillColor=none;align=center;verticalAlign=middle;whiteSpace=wrap;rounded=0;fontColor=#FF0000;" vertex="1" parent="1">
          <mxGeometry x="951" y="394" width="29.5" height="18" as="geometry" />
        </mxCell>
        <mxCell id="AN9EAjbtdKbISoLZVyTg-273" value="" style="group" vertex="1" connectable="0" parent="1">
          <mxGeometry x="778" y="511" width="153" height="130" as="geometry" />
        </mxCell>
        <mxCell id="AN9EAjbtdKbISoLZVyTg-215" value="" style="group" vertex="1" connectable="0" parent="AN9EAjbtdKbISoLZVyTg-273">
          <mxGeometry x="12" width="141" height="130" as="geometry" />
        </mxCell>
        <mxCell id="AN9EAjbtdKbISoLZVyTg-216" value="book_order" style="swimlane;fontStyle=0;childLayout=stackLayout;horizontal=1;startSize=26;fillColor=none;horizontalStack=0;resizeParent=1;resizeParentMax=0;resizeLast=0;collapsible=1;marginBottom=0;" vertex="1" parent="AN9EAjbtdKbISoLZVyTg-215">
          <mxGeometry width="140" height="130" as="geometry" />
        </mxCell>
        <mxCell id="AN9EAjbtdKbISoLZVyTg-217" value="    order_id" style="text;strokeColor=none;fillColor=none;align=left;verticalAlign=top;spacingLeft=4;spacingRight=4;overflow=hidden;rotatable=0;points=[[0,0.5],[1,0.5]];portConstraint=eastwest;fontColor=#0000FF;" vertex="1" parent="AN9EAjbtdKbISoLZVyTg-216">
          <mxGeometry y="26" width="140" height="104" as="geometry" />
        </mxCell>
        <mxCell id="AN9EAjbtdKbISoLZVyTg-218" value="" style="points=[[0,0.5,0],[0.24,0,0],[0.5,0.28,0],[0.995,0.475,0],[0.5,0.72,0],[0.24,1,0]];verticalLabelPosition=bottom;sketch=0;html=1;verticalAlign=top;aspect=fixed;align=center;pointerEvents=1;shape=mxgraph.cisco19.key;fillColor=#bac8d3;strokeColor=#23445d;direction=north;" vertex="1" parent="AN9EAjbtdKbISoLZVyTg-215">
          <mxGeometry x="4" y="30" width="11.65" height="25.89" as="geometry" />
        </mxCell>
        <mxCell id="AN9EAjbtdKbISoLZVyTg-219" value="    book_id" style="text;strokeColor=none;fillColor=none;align=left;verticalAlign=top;spacingLeft=4;spacingRight=4;overflow=hidden;rotatable=0;points=[[0,0.5],[1,0.5]];portConstraint=eastwest;fontColor=#0000FF;" vertex="1" parent="AN9EAjbtdKbISoLZVyTg-215">
          <mxGeometry x="1" y="55" width="140" height="38" as="geometry" />
        </mxCell>
        <mxCell id="AN9EAjbtdKbISoLZVyTg-220" value="" style="points=[[0,0.5,0],[0.24,0,0],[0.5,0.28,0],[0.995,0.475,0],[0.5,0.72,0],[0.24,1,0]];verticalLabelPosition=bottom;sketch=0;html=1;verticalAlign=top;aspect=fixed;align=center;pointerEvents=1;shape=mxgraph.cisco19.key;fillColor=#bac8d3;strokeColor=#23445d;direction=north;" vertex="1" parent="AN9EAjbtdKbISoLZVyTg-215">
          <mxGeometry x="5" y="59" width="11.65" height="25.89" as="geometry" />
        </mxCell>
        <mxCell id="AN9EAjbtdKbISoLZVyTg-272" value="    book_price : decimal&#xa;    quantity : int" style="text;strokeColor=none;fillColor=none;align=left;verticalAlign=top;spacingLeft=4;spacingRight=4;overflow=hidden;rotatable=0;points=[[0,0.5],[1,0.5]];portConstraint=eastwest;fontColor=#000000;" vertex="1" parent="AN9EAjbtdKbISoLZVyTg-273">
          <mxGeometry y="88" width="140" height="38" as="geometry" />
        </mxCell>
        <mxCell id="AN9EAjbtdKbISoLZVyTg-274" value="    book_price : decimal&#xa;    quantity : int" style="text;strokeColor=none;fillColor=none;align=left;verticalAlign=top;spacingLeft=4;spacingRight=4;overflow=hidden;rotatable=0;points=[[0,0.5],[1,0.5]];portConstraint=eastwest;fontColor=#000000;" vertex="1" parent="1">
          <mxGeometry x="489.63" y="672" width="139.25" height="38" as="geometry" />
        </mxCell>
      </root>
    </mxGraphModel>
  </diagram>
</mxfile>
